<?xml version="1.0" standalone="no"?>
<!DOCTYPE svg PUBLIC "-//W3C//DTD SVG 20010904//EN"
 "http://www.w3.org/TR/2001/REC-SVG-20010904/DTD/svg10.dtd">
<svg version="1.0" xmlns="http://www.w3.org/2000/svg"
 width="512.000000pt" height="512.000000pt" viewBox="0 0 512.000000 512.000000"
 preserveAspectRatio="xMidYMid meet">

<g transform="translate(0.000000,512.000000) scale(0.100000,-0.100000)"
fill="#000000" stroke="none">
<path d="M243 5106 c-88 -28 -176 -107 -216 -194 l-22 -47 0 -2305 0 -2305 22
-47 c30 -66 105 -143 172 -175 l56 -28 2305 0 2305 0 56 28 c67 32 142 109
172 175 l22 47 0 2305 0 2305 -27 55 c-35 71 -97 133 -167 168 l-56 27 -2290
2 c-1865 1 -2298 -1 -2332 -11z m4594 -167 c15 -5 41 -22 57 -37 53 -50 56
-68 56 -362 l0 -270 -2390 0 -2390 0 0 269 c0 166 4 281 11 298 14 37 57 82
94 99 25 11 423 13 2282 14 1567 0 2260 -3 2280 -11z m113 -2733 c0 -1314 -3
-1903 -11 -1923 -14 -38 -57 -83 -96 -99 -48 -21 -4518 -21 -4566 0 -39 16
-82 61 -96 99 -8 20 -11 609 -11 1923 l0 1894 2390 0 2390 0 0 -1894z"/>
<path d="M455 4665 c-66 -65 9 -173 92 -133 15 7 34 26 41 41 40 83 -68 158
-133 92z"/>
<path d="M795 4665 c-37 -36 -34 -86 7 -120 38 -32 81 -29 116 11 26 29 28 54
7 93 -25 49 -90 57 -130 16z"/>
<path d="M1135 4665 c-32 -31 -32 -75 -1 -111 49 -58 146 -20 146 57 0 70 -94
106 -145 54z"/>
<path d="M4210 4670 c-28 -28 -36 -69 -19 -99 26 -46 50 -51 251 -51 186 0
187 0 217 26 40 33 43 83 6 119 -24 25 -25 25 -230 25 -191 0 -206 -1 -225
-20z"/>
<path d="M3305 3556 c-60 -28 -97 -66 -124 -126 -20 -43 -21 -64 -21 -446 l0
-400 26 -52 c30 -61 80 -105 143 -127 65 -22 788 -22 850 0 59 20 108 61 139
114 24 41 27 58 30 156 4 101 2 112 -18 138 -27 33 -85 37 -121 8 -21 -17 -24
-29 -27 -108 -3 -98 -13 -126 -49 -142 -16 -7 -140 -11 -379 -11 -372 0 -402
3 -418 45 -3 9 -6 183 -6 386 l0 370 25 24 24 25 329 0 c339 0 383 4 402 40
18 34 12 85 -13 108 -23 22 -27 22 -383 22 -357 0 -359 0 -409 -24z"/>
<path d="M546 3478 c-40 -35 -43 -78 -11 -116 l27 -32 1097 0 c1200 0 1129 -3
1152 56 13 35 -12 91 -46 104 -17 6 -416 10 -1110 10 l-1084 0 -25 -22z"/>
<path d="M4491 3493 c-8 -3 -176 -150 -373 -325 l-360 -320 -112 111 c-94 92
-118 111 -143 111 -37 0 -79 -31 -85 -64 -9 -43 17 -79 159 -218 128 -126 143
-138 176 -138 27 0 46 9 74 33 197 169 756 673 769 692 41 62 -34 146 -105
118z"/>
<path d="M535 3038 c-32 -38 -29 -81 11 -115 l25 -23 1084 0 c694 0 1093 4
1110 10 34 13 59 69 46 104 -23 59 48 56 -1152 56 l-1097 0 -27 -32z"/>
<path d="M564 2636 c-68 -30 -66 -124 2 -152 49 -21 1209 -21 1258 0 70 29 70
123 0 152 -48 20 -1214 20 -1260 0z"/>
<path d="M3302 1764 c-57 -28 -96 -69 -123 -129 -17 -37 -19 -74 -19 -440 0
-381 1 -402 21 -445 27 -60 64 -98 124 -126 50 -24 50 -24 450 -24 366 0 403
2 440 19 60 27 101 66 129 123 23 46 26 64 26 155 0 97 -2 106 -25 128 -24 25
-65 32 -100 19 -30 -12 -45 -60 -45 -144 0 -73 -3 -83 -25 -105 l-24 -25 -376
0 -376 0 -24 25 -25 24 0 374 c0 354 1 376 19 398 l19 24 357 5 357 5 19 24
c29 36 25 94 -7 120 -26 20 -38 21 -383 21 l-357 0 -52 -26z"/>
<path d="M560 1697 c-52 -26 -62 -95 -20 -137 20 -20 38 -20 1123 -20 l1104 0
20 22 c29 32 34 53 21 88 -22 63 39 60 -1145 60 -849 0 -1083 -3 -1103 -13z"/>
<path d="M4488 1696 c-21 -11 -570 -492 -696 -610 l-32 -30 -108 107 c-112
112 -147 131 -192 107 -30 -16 -53 -72 -41 -102 12 -31 290 -304 317 -312 12
-4 32 -2 45 3 33 13 801 697 817 728 37 68 -41 146 -110 109z"/>
<path d="M539 1251 c-17 -18 -29 -40 -29 -56 0 -16 12 -38 29 -56 l29 -29
1096 0 1095 0 26 23 c21 17 27 32 27 62 0 30 -6 45 -27 62 l-26 23 -1095 0
-1096 0 -29 -29z"/>
<path d="M540 830 c-42 -42 -32 -111 20 -137 36 -18 1234 -18 1270 0 53 27 62
96 18 137 -21 20 -33 20 -655 20 -617 0 -634 -1 -653 -20z"/>
</g>
</svg>
