<svg version="1.0" xmlns="http://www.w3.org/2000/svg"
 width="auto" height="auto" viewBox="0 0 512.000000 512.000000"
 preserveAspectRatio="xMidYMid meet">

<g transform="translate(0.000000,512.000000) scale(0.100000,-0.100000)"
fill="current" stroke="none">
<path d="M245 4351 c-90 -22 -173 -90 -216 -176 l-24 -50 0 -1565 0 -1565 24
-50 c32 -63 92 -124 156 -155 l50 -25 1525 -3 c1094 -2 1533 1 1552 9 52 21
58 102 9 128 -14 8 -484 11 -1529 11 l-1509 0 -43 23 c-30 16 -51 37 -67 67
l-23 43 0 1517 0 1517 23 43 c16 30 37 51 67 67 l43 23 2277 0 2277 0 43 -23
c30 -16 51 -37 67 -67 l23 -43 0 -1517 0 -1517 -23 -43 c-16 -30 -37 -51 -67
-67 -42 -23 -49 -23 -355 -23 l-312 0 -21 -23 c-29 -31 -28 -72 3 -103 l25
-25 333 3 332 3 65 36 c76 42 133 109 155 184 13 44 15 251 13 1595 l-3 1545
-24 50 c-32 63 -92 124 -156 155 l-50 25 -2305 2 c-1268 0 -2318 -2 -2335 -6z"/>
<path d="M647 3949 c-90 -21 -162 -77 -208 -161 -30 -56 -33 -71 -34 -143 0
-93 21 -148 81 -215 54 -60 123 -92 210 -98 94 -6 158 15 224 75 130 116 146
306 39 436 -74 90 -200 133 -312 106z m158 -169 c132 -82 73 -300 -82 -300
-84 0 -141 41 -164 120 -16 54 -4 105 38 151 57 63 136 74 208 29z"/>
<path d="M1244 3868 c-22 -10 -44 -47 -44 -74 0 -8 11 -26 25 -39 l24 -25 511
0 c497 0 511 1 530 20 30 30 27 83 -6 109 -26 21 -36 21 -523 20 -320 0 -504
-4 -517 -11z"/>
<path d="M1244 3549 c-22 -11 -44 -48 -44 -73 0 -7 9 -25 21 -40 l20 -26 275
0 c261 0 275 1 294 20 27 27 26 81 -1 106 -19 18 -41 19 -283 21 -168 1 -269
-2 -282 -8z"/>
<path d="M2483 3360 c-65 -13 -1642 -701 -1673 -731 -40 -37 -57 -98 -41 -151
7 -23 25 -53 40 -67 34 -32 515 -241 553 -241 58 0 89 73 51 118 -10 11 -125
66 -256 122 -130 57 -237 106 -237 110 0 3 357 161 792 351 764 331 795 344
853 343 56 -1 115 -25 848 -344 433 -189 787 -346 787 -350 0 -5 -553 -251
-667 -297 -10 -4 -13 22 -13 111 0 78 -5 128 -14 151 -50 118 -392 186 -946
186 -369 0 -633 -29 -799 -85 -93 -32 -137 -65 -151 -114 -8 -25 -10 -150 -8
-377 3 -319 4 -342 23 -373 11 -18 36 -43 55 -55 l35 -22 845 0 845 0 35 22
c65 40 75 69 78 238 l4 150 76 33 c43 17 80 32 85 32 4 0 7 -184 7 -410 l0
-409 -35 -17 c-45 -21 -102 -87 -115 -133 -5 -20 -10 -107 -10 -193 l0 -157
26 -20 c25 -19 40 -21 198 -21 94 0 181 3 194 6 41 12 52 51 52 196 0 73 -5
151 -11 173 -16 58 -56 113 -106 142 l-43 25 0 446 0 447 222 95 c122 52 234
107 249 121 15 14 33 44 40 67 16 53 -1 114 -40 151 -36 34 -1608 717 -1680
731 -61 11 -88 11 -148 0z m495 -855 c156 -17 295 -44 356 -69 l37 -15 -3
-153 -3 -153 -805 0 -805 0 -3 153 -3 153 37 15 c58 24 201 53 341 68 183 20
664 20 851 1z m390 -627 l-3 -83 -805 0 -805 0 -3 83 -3 82 811 0 811 0 -3
-82z m456 -749 c24 -28 26 -38 26 -125 l0 -94 -85 0 -85 0 0 100 c0 94 2 103
25 125 36 37 86 34 119 -6z"/>
</g>
</svg>
