<?xml version="1.0" standalone="no"?>
<!DOCTYPE svg PUBLIC "-//W3C//DTD SVG 20010904//EN"
 "http://www.w3.org/TR/2001/REC-SVG-20010904/DTD/svg10.dtd">
<svg version="1.0" xmlns="http://www.w3.org/2000/svg"
 width="auto" height="auto" viewBox="0 0 512.000000 512.000000"
 preserveAspectRatio="xMidYMid meet">

<g transform="translate(0.000000,512.000000) scale(0.100000,-0.100000)"
fill="current" stroke="none">
<path d="M2495 4586 c-37 -17 -70 -52 -84 -89 -8 -20 -11 -403 -11 -1230 l0
-1202 -332 332 c-183 183 -346 337 -361 342 -73 28 -158 -2 -196 -69 -23 -41
-28 -108 -10 -143 16 -31 958 -975 991 -993 35 -18 101 -18 136 0 15 8 242
230 504 493 515 516 500 499 484 588 -9 46 -62 100 -114 115 -87 27 -92 23
-454 -338 l-328 -326 -2 1216 c-3 1211 -3 1217 -24 1244 -11 15 -32 37 -46 47
-34 25 -113 32 -153 13z"/>
<path d="M454 2016 c-38 -17 -71 -57 -85 -105 -7 -25 -9 -148 -7 -376 4 -336
5 -341 32 -430 69 -227 215 -400 421 -500 179 -87 25 -80 1745 -80 1720 0
1566 -7 1745 80 211 102 365 291 427 520 19 73 22 110 25 425 4 344 4 345 -19
389 -30 58 -65 83 -126 89 -63 6 -120 -24 -151 -78 -20 -36 -21 -51 -21 -346
0 -346 -7 -403 -62 -507 -41 -78 -127 -164 -198 -199 -123 -61 -39 -58 -1620
-58 -1580 0 -1493 -3 -1618 58 -76 36 -162 123 -201 201 -54 106 -61 161 -61
505 0 295 -1 310 -21 346 -39 69 -130 98 -205 66z"/>
</g>
</svg>
