<svg version="1.0" xmlns="http://www.w3.org/2000/svg"
 width="auto" height="auto" viewBox="0 0 512.000000 512.000000"
 preserveAspectRatio="xMidYMid meet">

<g transform="translate(0.000000,512.000000) scale(0.100000,-0.100000)"
fill="current" stroke="none">
<path d="M2522 5108 c-35 -18 -44 -73 -40 -269 3 -168 4 -180 25 -200 29 -29
77 -29 106 0 21 20 22 32 25 200 4 201 -4 251 -43 269 -31 14 -43 14 -73 0z"/>
<path d="M2475 4459 c-143 -8 -224 -21 -336 -53 -140 -41 -221 -78 -238 -108
-20 -35 -6 -77 32 -98 25 -14 32 -13 104 14 333 125 682 132 993 20 553 -198
884 -682 881 -1289 -1 -203 -25 -347 -86 -509 -75 -200 -136 -279 -414 -537
-79 -74 -170 -168 -204 -209 -70 -87 -132 -209 -148 -292 l-12 -58 -487 0
-487 0 -12 58 c-16 83 -78 205 -148 292 -34 41 -125 135 -204 209 -278 258
-339 337 -414 537 -61 162 -85 306 -86 509 -2 423 163 805 451 1040 41 33 84
70 97 82 30 29 30 73 0 101 -38 36 -75 28 -148 -29 -367 -292 -554 -704 -550
-1215 2 -235 37 -410 120 -602 79 -182 164 -290 402 -508 215 -197 312 -327
334 -446 7 -36 6 -37 -43 -62 -95 -48 -162 -156 -162 -262 0 -53 33 -144 66
-183 13 -16 24 -32 24 -35 0 -3 -15 -26 -34 -50 -91 -119 -64 -305 57 -397 71
-53 104 -61 288 -66 l166 -5 6 -57 c8 -98 61 -173 157 -222 64 -33 176 -33
240 0 96 49 149 124 157 222 l6 57 166 5 c184 5 217 13 288 66 121 92 148 278
57 397 -19 24 -34 47 -34 50 0 3 11 19 24 35 33 39 66 130 66 183 0 106 -67
214 -162 262 -49 25 -50 26 -43 62 22 119 119 248 339 450 237 218 318 321
397 504 83 192 118 367 120 602 4 527 -196 950 -584 1240 -233 174 -529 281
-822 298 -33 2 -114 1 -180 -3z m704 -3287 c54 -27 76 -65 76 -127 0 -62 -21
-97 -75 -126 -29 -16 -57 -19 -162 -19 -125 0 -127 0 -147 -26 -34 -43 -24
-86 26 -112 13 -7 69 -12 140 -12 100 0 123 -3 151 -20 93 -57 94 -190 1 -245
-33 -19 -52 -20 -629 -20 -577 0 -596 1 -629 20 -93 55 -92 188 1 245 31 19
51 20 366 20 273 0 338 3 361 15 48 24 55 72 16 110 l-24 25 -338 0 c-310 0
-341 2 -373 19 -54 29 -75 64 -75 126 0 62 22 100 76 127 31 17 82 18 619 18
537 0 588 -1 619 -18z m-489 -896 c0 -48 -38 -98 -88 -116 -37 -13 -47 -13
-84 0 -50 18 -88 68 -88 116 l0 34 130 0 130 0 0 -34z"/>
<path d="M766 4269 c-33 -26 -34 -69 -3 -102 38 -42 323 -207 356 -207 59 0
93 73 54 118 -26 29 -336 212 -360 212 -11 0 -32 -9 -47 -21z"/>
<path d="M4120 4190 c-91 -55 -171 -108 -177 -117 -19 -25 -16 -70 7 -93 36
-36 71 -26 233 71 167 101 197 126 197 169 0 33 -40 70 -74 70 -11 0 -95 -45
-186 -100z"/>
<path d="M1744 2819 c-15 -17 -20 -40 -22 -113 -3 -81 -1 -94 18 -119 27 -34
80 -37 110 -7 17 17 20 33 20 118 0 90 -2 100 -23 120 -30 28 -78 29 -103 1z"/>
<path d="M3272 2817 c-19 -21 -22 -34 -22 -120 0 -84 3 -100 20 -117 30 -30
83 -27 110 7 19 25 21 38 18 119 -2 73 -7 96 -22 113 -26 29 -76 28 -104 -2z"/>
<path d="M2320 2690 c-50 -50 -4 -127 102 -175 123 -55 290 -27 368 62 78 88
-17 181 -106 104 -31 -28 -88 -51 -124 -51 -36 0 -93 23 -124 51 -40 35 -87
38 -116 9z"/>
<path d="M345 2605 c-30 -29 -32 -64 -6 -96 19 -24 23 -24 221 -27 218 -3 241
1 259 51 10 28 -5 74 -29 87 -11 6 -108 10 -220 10 -200 0 -201 0 -225 -25z"/>
<path d="M4327 2618 c-41 -32 -38 -94 7 -123 21 -14 54 -16 226 -13 198 3 202
3 221 27 26 32 24 67 -6 96 -24 25 -25 25 -228 25 -147 0 -208 -3 -220 -12z"/>
</g>
</svg>
