<svg version="1.1" id="Layer_1" xmlns="http://www.w3.org/2000/svg" xmlns:xlink="http://www.w3.org/1999/xlink"
	 width="auto" height="auto" viewBox="0 0 512 512" preserveAspectRatio="xMidYMid meet" xml:space="preserve">
<path fill="current" stroke="none" 
	d="
M0.999999,423.454102 
	C8.411547,415.572205 15.454741,407.724823 23.323149,400.817474 
	C34.443272,391.055542 41.561539,378.567383 48.896950,366.134827 
	C51.594994,361.561951 54.331692,357.011932 57.035522,352.442474 
	C57.964081,350.873199 58.995201,349.446350 57.441711,347.492310 
	C46.371666,333.567902 46.179531,318.116791 52.029903,302.310181 
	C59.457951,282.241028 67.408348,262.363403 75.296135,242.467682 
	C76.904999,238.409576 76.390533,235.592224 73.296425,232.265091 
	C53.787045,211.286407 56.219353,178.055298 77.062271,158.503891 
	C94.073692,142.546555 125.350182,140.759857 144.082214,156.132309 
	C155.201355,165.257248 162.184982,176.809021 163.540680,191.804321 
	C164.943436,207.320129 160.389450,220.464035 150.979874,232.368088 
	C150.486359,232.992432 150.045425,233.658325 148.984131,235.132721 
	C159.363419,235.852295 168.529678,241.046112 178.571838,234.441483 
	C186.854309,228.994156 196.124847,224.910324 205.276886,220.962585 
	C214.642654,216.922623 222.293045,210.690353 229.730667,204.047607 
	C246.317505,189.233444 262.792297,174.293579 279.420685,159.526428 
	C282.764771,156.556610 286.471771,154.007690 289.364746,149.604965 
	C275.717865,136.877594 271.459351,120.581848 274.035797,102.613510 
	C275.947723,89.279724 282.947327,78.165962 293.847565,70.305016 
	C313.666901,56.011883 338.706451,55.063656 359.608276,72.606895 
	C376.831970,87.062996 386.059143,115.866875 365.861389,145.648422 
	C373.053467,145.648422 379.839783,145.646896 386.626099,145.648758 
	C397.955505,145.651886 409.291504,145.432892 420.611267,145.765137 
	C425.566467,145.910568 426.757263,144.117752 426.740631,139.436035 
	C426.591370,97.451141 426.696594,55.465401 426.600708,13.480196 
	C426.590851,9.166808 427.229553,5.230895 429.837830,1.328802 
	C433.692902,1.000000 437.385834,1.000000 441.768250,1.247854 
	C449.246307,4.952771 456.093994,8.299175 462.811737,11.888746 
	C479.445862,20.777035 497.050507,27.798931 513.000000,38.000000 
	C513.000000,41.361286 513.000000,44.722576 512.709900,48.721153 
	C510.967407,51.032997 509.015289,51.942532 507.083008,52.906425 
	C488.180206,62.335674 469.342957,71.899368 450.341644,81.125366 
	C446.434692,83.022369 445.242249,85.308594 445.255066,89.541542 
	C445.403198,138.533356 445.349060,187.525787 445.350006,236.518051 
	C445.350281,249.620041 445.352966,249.476944 432.014923,249.428925 
	C427.896820,249.414093 426.528412,248.095230 426.590607,243.967468 
	C426.793884,230.472687 426.625061,216.972702 426.692169,203.475189 
	C426.707184,200.461365 426.378448,198.317673 422.495880,198.337692 
	C402.332977,198.441711 382.169281,198.393417 362.005859,198.397156 
	C360.242523,198.397476 358.735504,198.614273 358.273804,200.809052 
	C356.717163,208.209167 354.802521,215.544861 354.044067,223.727890 
	C362.213806,225.084976 369.982819,226.555847 377.805969,227.633789 
	C390.311859,229.356964 398.971527,236.002151 401.784058,246.907074 
	C402.767181,250.718750 403.404419,254.662994 403.384033,258.695160 
	C403.299713,275.358765 403.345947,292.023041 403.350159,308.687073 
	C403.351929,315.639282 403.358673,315.645721 410.546478,315.646393 
	C442.541443,315.649384 474.536377,315.641632 506.531342,315.663910 
	C508.687622,315.665405 510.843781,315.882935 513.000000,316.000000 
	C513.000000,322.021149 513.000000,328.042297 512.607056,334.405457 
	C510.395386,334.619354 508.576660,334.379822 506.757843,334.379333 
	C452.785889,334.365173 398.813629,334.458771 344.842560,334.244568 
	C339.702728,334.224182 336.443390,336.142822 333.337708,339.692963 
	C323.288483,351.180328 313.155121,362.594696 302.990021,373.979950 
	C291.383331,386.979736 279.627502,399.847260 268.102753,412.918915 
	C263.636658,417.984497 258.550171,420.486481 251.602707,420.450226 
	C213.123764,420.249329 174.643219,420.357666 136.163223,420.361877 
	C129.367218,420.362610 129.356796,420.366516 129.353439,427.330353 
	C129.345139,444.488098 129.373581,461.645905 129.330917,478.803558 
	C129.316238,484.712219 127.618492,486.833710 121.897270,488.242218 
	C118.040794,489.191620 114.140785,489.962677 110.268761,490.850647 
	C84.466301,496.767944 58.639523,502.583740 32.891060,508.727570 
	C28.537386,509.766418 23.683968,509.764679 20.000000,513.000000 
	C13.754016,513.000000 7.508032,513.000000 1.000000,513.000000 
	C1.000000,508.652863 1.000000,504.300537 1.321149,499.335999 
	C4.030474,496.568298 6.787144,495.266663 9.959241,494.563629 
	C21.914591,491.914001 33.842724,489.140808 45.773506,486.381256 
	C65.446144,481.831146 85.081802,477.113312 104.806107,472.800323 
	C109.215134,471.836273 110.817352,470.152618 110.752388,465.567657 
	C110.509415,448.420319 110.637794,431.267334 110.675552,414.116608 
	C110.684837,409.900024 111.148186,405.812592 114.884300,402.935913 
	C117.726906,400.747284 120.994621,401.693665 124.055275,401.723663 
	C127.548912,401.757904 128.767014,400.415588 128.697144,396.995270 
	C128.544174,389.505432 128.666428,382.010162 128.659363,374.517090 
	C128.653259,368.057251 125.801300,365.839264 119.658249,367.471344 
	C116.705460,368.255829 115.823311,371.012085 114.388435,373.147919 
	C98.952332,396.124878 85.027901,420.225342 63.641785,438.648071 
	C56.974247,444.391754 51.064808,451.018341 44.839451,457.271698 
	C37.741642,464.401398 32.474247,464.478973 25.267202,457.331909 
	C17.133661,449.266113 9.085365,441.114380 1.000001,433.000000 
	C1.000000,429.969391 1.000000,426.938812 0.999999,423.454102 
M313.150848,333.669617 
	C315.458221,331.284668 317.590210,328.722290 319.847656,326.318787 
	C324.981689,320.852539 329.500916,314.090515 338.790283,315.494354 
	C341.552948,315.911896 341.634979,313.311218 341.637268,311.241669 
	C341.644989,304.243713 341.653809,297.245758 341.648102,290.247803 
	C341.641602,282.273071 341.625793,282.467987 333.787964,282.097565 
	C331.533325,281.991028 330.776428,283.211456 329.886566,284.430389 
	C327.635529,287.513947 325.589355,290.747253 323.465790,293.923676 
	C314.978363,306.618958 307.603088,320.268311 297.729523,331.773865 
	C284.963776,346.649628 270.287994,359.899872 256.256226,373.668243 
	C251.358063,378.474487 246.354248,378.841125 241.560013,374.353668 
	C232.809021,366.162628 224.335754,357.645660 216.169189,348.871368 
	C211.908585,344.293701 212.604446,339.387848 217.193634,334.764618 
	C226.583298,325.305359 235.998123,315.870087 245.500229,306.524170 
	C247.782608,304.279327 249.729233,301.816559 251.369949,299.129974 
	C257.337921,289.357758 263.262573,279.557648 269.059906,269.683746 
	C270.264374,267.632294 272.357697,265.247253 270.677582,262.792694 
	C266.839264,257.185150 264.108459,251.074722 262.200073,244.826019 
	C259.896484,244.872665 258.942932,246.162140 257.747955,247.014526 
	C252.214813,250.961273 246.928329,255.317749 241.115707,258.795807 
	C227.885925,266.712006 214.512558,274.407135 200.970337,281.774506 
	C194.036453,285.546722 187.834015,291.315979 179.662231,292.100433 
	C172.230087,292.813873 164.682526,292.345276 157.185745,292.360352 
	C144.368668,292.386108 144.368927,292.373901 141.698776,304.721191 
	C141.628540,305.045959 141.503616,305.361298 141.457794,305.688538 
	C141.135315,307.991882 141.643692,309.375122 144.425415,309.727203 
	C150.656662,310.515869 156.821365,311.820831 163.047455,312.661438 
	C180.321442,314.993866 190.022751,325.029999 189.473984,342.679626 
	C188.915024,360.657013 189.385818,378.665436 189.317734,396.659973 
	C189.306244,399.695374 189.615128,401.738281 193.521591,401.710114 
	C212.181839,401.575684 230.843613,401.638367 249.504791,401.658539 
	C251.267487,401.660431 252.874603,401.336548 253.929001,399.844269 
	C256.732788,395.876038 260.460754,392.765808 263.669098,389.181458 
	C280.039886,370.892181 296.314117,352.516541 313.150848,333.669617 
M197.679199,246.268921 
	C191.714005,249.224808 185.645065,251.992081 179.817657,255.198380 
	C175.442505,257.605652 170.860336,257.680420 166.235672,257.193878 
	C161.637726,256.710114 157.095261,255.688324 152.533310,254.875183 
	C134.408981,251.644623 116.329681,248.153976 97.735031,249.257706 
	C94.289421,249.462234 92.519493,250.275650 91.229813,253.717514 
	C84.251762,272.340271 77.255058,290.966766 69.694099,309.357361 
	C62.211063,327.558411 73.822495,343.501343 88.710129,345.416016 
	C103.475914,347.314972 118.347221,348.488220 133.202225,349.567017 
	C144.078796,350.356903 147.311615,353.354034 147.342102,364.264038 
	C147.372818,375.258575 147.425751,386.254059 147.306274,397.247375 
	C147.271820,400.417633 148.294189,401.819977 151.611282,401.694427 
	C156.268845,401.518097 160.949539,401.458435 165.599304,401.721100 
	C169.623932,401.948456 170.741837,400.274384 170.712540,396.451019 
	C170.572128,378.127716 170.598907,359.802460 170.688873,341.478516 
	C170.713959,336.369965 168.627060,333.232452 163.505402,332.338593 
	C151.949402,330.321838 140.383499,328.360718 128.836746,326.292542 
	C121.533829,324.984528 118.280823,320.591431 119.894974,313.562927 
	C122.419525,302.570221 125.247490,291.644318 128.118988,280.735413 
	C129.341553,276.090881 132.216705,273.503815 137.480774,273.596100 
	C149.138138,273.800476 160.801819,273.618317 172.462418,273.684021 
	C175.031097,273.698486 177.245865,273.160706 179.523148,271.833649 
	C193.583435,263.640564 207.739502,255.611832 221.858383,247.519135 
	C223.858307,246.372818 226.739105,245.245026 224.114929,242.437057 
	C221.948792,240.119232 222.204773,233.905792 216.192215,236.996216 
	C210.273682,240.038269 204.290237,242.954010 197.679199,246.268921 
M285.510986,217.800278 
	C284.677032,220.142807 284.102417,222.619965 282.967377,224.806168 
	C275.226624,239.715500 285.392212,258.663116 304.556885,260.583099 
	C319.372650,262.067322 334.211914,263.320160 349.045715,264.619171 
	C357.682434,265.375458 360.301117,268.135132 360.325531,276.887390 
	C360.356689,288.045532 360.508728,299.207642 360.256744,310.360107 
	C360.161102,314.593658 361.641663,315.939453 365.720734,315.710999 
	C370.701691,315.432037 375.710419,315.575317 380.705383,315.650909 
	C383.407867,315.691772 384.663361,314.622192 384.657043,311.828644 
	C384.616211,293.842438 384.806152,275.853821 384.562195,257.870850 
	C384.464752,250.686417 381.831787,247.571167 376.370544,246.500809 
	C373.778351,245.992783 371.130524,245.775574 368.524261,245.330750 
	C359.079956,243.718918 349.599335,242.276733 340.219849,240.345795 
	C335.085663,239.288818 331.907532,234.277939 332.837738,229.561340 
	C335.529694,215.911636 338.236572,202.263290 341.137115,188.656952 
	C342.736237,181.155411 344.832886,179.655090 352.432739,179.651901 
	C373.749969,179.642975 395.067505,179.714401 416.384338,179.624527 
	C427.808197,179.576340 426.507812,181.602295 426.696259,168.676315 
	C426.743988,165.402588 425.510071,164.324417 422.301208,164.330276 
	C384.829681,164.398758 347.357910,164.392731 309.886322,164.327866 
	C307.133270,164.323105 305.526337,165.382401 304.585236,167.865143 
	C298.361084,184.285675 292.111694,200.696640 285.510986,217.800278 
M310.329163,141.124634 
	C316.154816,144.632690 322.599670,145.329208 329.112823,144.592850 
	C346.793243,142.593994 359.336273,127.790665 358.333588,110.644341 
	C357.175201,90.835304 341.342010,77.380043 321.637451,79.287544 
	C307.633575,80.643204 295.124146,92.092545 292.482391,106.521011 
	C290.089966,119.587822 297.606873,134.591599 310.329163,141.124634 
M100.024384,166.516937 
	C85.897408,171.999115 77.242035,186.955322 79.272171,201.788818 
	C81.294891,216.568024 93.436813,228.815079 109.973907,230.404083 
	C121.666031,231.527573 136.012146,224.674866 141.951859,210.849182 
	C147.122910,198.812683 145.999176,187.010406 137.422287,176.735641 
	C127.688507,165.074982 115.371025,161.442215 100.024384,166.516937 
M276.490112,293.892822 
	C267.738403,313.492401 251.715759,327.258698 237.005478,342.013031 
	C239.582642,346.169220 243.129028,348.508698 245.857224,351.597565 
	C247.665634,353.645050 249.299149,353.571289 251.259872,351.566528 
	C267.844086,334.609558 286.124023,319.137817 297.883087,297.981079 
	C301.299927,291.833557 306.254059,286.599976 309.290588,279.495056 
	C301.554810,279.640045 294.668335,278.135803 287.655396,275.789581 
	C284.001892,281.724854 280.445679,287.502075 276.490112,293.892822 
M40.762089,410.262329 
	C34.992634,415.958710 29.223175,421.655090 22.032393,428.754822 
	C25.830868,431.853210 29.191275,434.302887 32.185909,437.138824 
	C34.203327,439.049255 35.633877,439.207764 37.575882,437.197784 
	C53.805935,420.399750 72.008385,405.369507 83.748108,384.582611 
	C87.290314,378.310669 91.659782,372.505951 95.607338,366.551971 
	C92.039551,362.901886 87.848892,364.729004 84.240990,363.805939 
	C73.990547,361.183441 74.194702,361.586945 68.409363,370.789032 
	C59.979580,384.197449 53.822399,399.223663 40.762089,410.262329 
M459.170105,31.490700 
	C454.803162,29.692621 450.920074,26.752861 445.912781,25.559338 
	C445.912781,37.703461 445.912781,49.437008 445.912781,61.945770 
	C458.177643,55.799416 469.674500,50.037933 482.004913,43.858730 
	C474.532623,38.467503 466.846558,35.751865 459.170105,31.490700 
M238.812515,221.299728 
	C233.911911,225.198715 238.434311,227.894226 240.064728,230.935547 
	C241.425262,233.473480 243.013062,234.161163 245.599060,232.093658 
	C251.298035,227.537399 257.201019,223.236938 262.988098,218.789627 
	C264.020874,217.995941 265.119781,217.266937 265.647888,215.905334 
	C269.164734,206.837936 272.742126,197.794006 276.564575,188.068848 
	C263.701874,199.376205 251.509827,210.094009 238.812515,221.299728 
z"/>
<path fill="#000000" opacity="1.000000" stroke="none" 
	d="
M85.531342,1.000000 
	C86.761215,2.836419 88.648560,2.984134 90.130745,3.453518 
	C98.592857,6.133325 106.436737,9.826094 113.140877,15.826376 
	C115.158150,17.631859 117.465424,18.390669 120.778549,17.962421 
	C150.494202,14.121426 173.531677,31.397001 179.744949,57.949383 
	C180.756958,62.274220 182.436966,66.886963 180.680283,71.620956 
	C179.076904,75.941780 176.560211,78.428444 171.552353,78.420784 
	C117.950768,78.338852 64.348976,78.352654 10.747361,78.424049 
	C6.971933,78.429077 3.918358,77.380630 1.253187,74.247856 
	C1.000000,67.312355 1.000000,60.624710 1.302896,53.298889 
	C1.948367,51.939468 2.407227,51.250256 2.616030,50.492165 
	C5.622491,39.576836 11.093493,30.160349 18.812382,21.813074 
	C29.016914,10.777799 41.688755,4.512824 56.000000,1.000000 
	C65.687561,1.000000 75.375122,1.000000 85.531342,1.000000 
M80.499908,59.648991 
	C106.893776,59.648991 133.287643,59.648991 159.869431,59.648991 
	C155.389877,42.290974 137.508392,32.752773 119.498520,37.854218 
	C113.785912,39.472363 109.520164,38.763485 105.164192,34.451988 
	C86.358582,15.838350 60.305283,13.814974 39.082504,29.539818 
	C29.389206,36.721989 22.959621,46.448399 20.250601,59.648197 
	C40.408489,59.648197 59.954197,59.648197 80.499908,59.648991 
z"/>
<path fill="#000000" opacity="1.000000" stroke="none" 
	d="
M215.350403,103.000381 
	C215.246597,113.321831 216.340958,112.349686 206.523239,112.322502 
	C195.233917,112.291252 196.714020,113.550003 196.684067,102.502098 
	C196.657196,92.594009 195.721664,93.760208 205.490738,93.653969 
	C205.823898,93.650345 206.157150,93.651436 206.490326,93.654449 
	C216.450668,93.744553 215.228821,92.859749 215.350403,103.000381 
z"/>
<path fill="#000000" opacity="1.000000" stroke="none" 
	d="
M162.669586,98.131149 
	C163.594849,93.246132 165.380264,92.913353 177.359619,93.592262 
	C181.354431,93.818665 181.413467,96.061691 181.351212,98.903610 
	C180.995468,115.137016 183.926056,111.864067 168.124008,112.399368 
	C164.127960,112.534729 162.202164,111.393089 162.610336,107.104408 
	C162.877426,104.298332 162.661575,101.446289 162.669586,98.131149 
z"/>
<path fill="#000000" opacity="1.000000" stroke="none" 
	d="
M136.049026,112.348610 
	C128.676620,112.267929 128.676636,112.267929 128.652832,105.559052 
	C128.610474,93.622780 128.610458,93.622780 140.447174,93.663254 
	C147.323151,93.686760 147.323196,93.686760 147.347366,100.477478 
	C147.348557,100.810516 147.352844,101.143646 147.347122,101.476578 
	C147.131165,114.040482 149.096970,112.145081 136.049026,112.348610 
z"/>
</svg>