<svg version="1.0" xmlns="http://www.w3.org/2000/svg"
 width="auto" height="auto" viewBox="0 0 512.000000 512.000000"
 preserveAspectRatio="xMidYMid meet">
<g transform="translate(0.000000,512.000000) scale(0.100000,-0.100000)"
fill="current" stroke="none">
<path d="M247 5026 c-55 -20 -103 -61 -134 -114 l-28 -47 -3 -463 -3 -462 25
-25 c33 -33 79 -33 111 0 l25 24 0 431 c0 467 1 473 55 498 20 9 302 12 1161
12 l1135 0 24 25 c16 15 25 36 25 55 0 19 -9 40 -25 55 l-24 25 -1153 0 c-937
-1 -1160 -3 -1191 -14z"/>
<path d="M2825 5016 c-33 -33 -33 -79 0 -111 l24 -25 256 0 c278 0 300 -4 323
-55 9 -19 12 -158 12 -521 l0 -495 25 -24 c15 -16 36 -25 55 -25 19 0 40 9 55
25 l25 24 0 513 c-1 402 -4 521 -14 551 -20 55 -61 103 -114 134 l-47 28 -287
3 -288 3 -25 -25z"/>
<path d="M495 4706 c-68 -30 -95 -84 -95 -187 0 -61 3 -73 25 -94 15 -16 36
-25 55 -25 51 0 80 38 80 105 l0 55 55 0 c46 0 60 4 80 25 33 32 33 78 0 110
-21 22 -33 25 -97 25 -40 -1 -86 -7 -103 -14z"/>
<path d="M1065 4695 c-16 -15 -25 -36 -25 -55 0 -19 9 -40 25 -55 l24 -25 751
0 751 0 24 25 c33 32 33 78 0 110 l-24 25 -751 0 -751 0 -24 -25z"/>
<path d="M1385 4375 c-16 -15 -25 -36 -25 -55 0 -19 9 -40 25 -55 l24 -25 431
0 431 0 24 25 c16 15 25 36 25 55 0 19 -9 40 -25 55 l-24 25 -431 0 -431 0
-24 -25z"/>
<path d="M1065 4055 c-16 -15 -25 -36 -25 -55 0 -19 9 -40 25 -55 l24 -25
1071 0 1071 0 24 25 c16 15 25 36 25 55 0 19 -9 40 -25 55 l-24 25 -1071 0
-1071 0 -24 -25z"/>
<path d="M759 4051 c-13 -10 -49 -69 -78 -129 l-55 -111 -52 49 c-57 54 -91
63 -132 34 -34 -24 -45 -60 -28 -92 21 -40 167 -179 200 -192 22 -8 37 -8 59
1 23 10 44 42 118 190 49 99 89 187 89 198 0 10 -9 30 -21 45 -25 31 -66 34
-100 7z"/>
<path d="M105 3735 c-23 -23 -25 -31 -25 -130 0 -99 2 -107 25 -130 15 -16 36
-25 55 -25 19 0 40 9 55 25 23 23 25 31 25 130 0 99 -2 107 -25 130 -15 16
-36 25 -55 25 -19 0 -40 -9 -55 -25z"/>
<path d="M1065 3735 c-16 -15 -25 -36 -25 -55 0 -19 9 -40 25 -55 l24 -25 671
0 671 0 24 25 c33 32 33 78 0 110 l-24 25 -671 0 -671 0 -24 -25z"/>
<path d="M2290 3354 c-492 -223 -903 -415 -912 -426 -24 -27 -23 -73 2 -98 11
-11 155 -87 319 -170 l299 -149 4 -315 3 -314 25 -28 c67 -73 262 -123 605
-156 174 -17 956 -17 1130 0 343 33 538 83 605 156 l25 28 3 314 4 315 298
149 c195 97 305 158 319 176 26 33 27 65 4 92 -18 20 -1796 832 -1823 832 -8
0 -418 -183 -910 -406z m1192 109 l278 -127 0 -74 0 -75 -37 7 c-21 3 -87 15
-148 27 -141 26 -486 37 -630 20 -87 -10 -103 -15 -122 -37 -30 -33 -29 -69 3
-101 23 -23 31 -25 77 -19 29 3 129 9 222 12 189 7 372 -9 540 -48 l95 -21 0
-122 0 -123 -30 -12 c-42 -17 -104 -90 -118 -138 -7 -22 -12 -90 -12 -151 0
-105 1 -113 25 -136 24 -25 26 -25 215 -25 189 0 191 0 215 25 24 23 25 31 25
136 0 61 -5 129 -12 151 -14 48 -76 121 -118 138 l-30 12 0 94 c0 62 4 94 11
94 16 0 216 -87 267 -116 l42 -25 0 -379 c0 -230 -4 -380 -9 -380 -6 0 -38 7
-73 15 -103 24 -262 45 -388 52 l-118 6 -26 -28 c-32 -34 -33 -66 -3 -100 21
-26 31 -28 172 -41 83 -7 191 -20 241 -29 50 -8 94 -15 98 -15 3 0 6 -4 6 -8
0 -5 -28 -14 -62 -20 -451 -82 -1305 -82 -1755 0 -35 6 -63 14 -63 18 0 4 28
12 63 18 207 38 541 62 857 62 156 0 190 3 210 16 57 38 65 80 25 119 -24 25
-24 25 -237 25 -427 0 -809 -37 -1005 -96 l-23 -6 0 387 0 386 123 59 c67 32
165 72 217 90 110 37 140 60 140 106 0 38 -38 74 -77 74 -71 0 -480 -177 -534
-231 -16 -16 -19 -35 -19 -129 l0 -110 -185 92 c-101 51 -181 96 -177 100 8 8
1552 707 1562 708 3 0 130 -57 282 -127z m859 -388 c227 -102 417 -189 421
-193 4 -4 -76 -49 -177 -100 l-185 -92 0 110 c0 105 -1 112 -25 136 -31 31
-257 140 -372 180 l-83 29 0 57 c0 32 2 58 4 58 3 0 190 -83 417 -185z m-446
-460 c21 -20 25 -34 25 -80 l0 -55 -80 0 -80 0 0 55 c0 67 29 105 80 105 19 0
40 -9 55 -25z"/>
<path d="M1065 3415 c-16 -15 -25 -36 -25 -55 0 -19 9 -40 25 -55 l24 -25 351
0 351 0 24 25 c16 15 25 36 25 55 0 19 -9 40 -25 55 l-24 25 -351 0 -351 0
-24 -25z"/>
<path d="M759 3411 c-13 -10 -49 -69 -78 -129 l-55 -111 -52 49 c-57 54 -91
63 -132 34 -34 -24 -45 -60 -28 -92 17 -32 162 -175 194 -192 17 -8 31 -8 58
0 32 11 41 24 124 191 50 98 90 187 90 198 0 10 -9 30 -21 45 -25 31 -66 34
-100 7z"/>
<path d="M105 3255 l-25 -24 0 -1381 c0 -1483 -2 -1429 48 -1444 10 -4 414
-78 898 -166 l879 -160 745 0 c596 1 752 4 783 14 55 20 103 61 134 114 l28
47 3 608 3 607 -25 25 c-33 33 -79 33 -111 0 l-25 -24 0 -586 0 -587 -29 -29
-29 -29 -724 0 -723 0 -394 175 c-216 96 -404 175 -418 175 -32 0 -73 -42 -73
-75 0 -45 17 -61 107 -100 48 -21 91 -42 96 -45 6 -5 -224 34 -695 121 l-118
21 35 41 c19 22 42 60 51 84 9 23 21 43 26 43 5 0 58 -23 117 -50 59 -28 120
-50 135 -50 34 0 76 41 76 74 0 45 -40 73 -218 151 -137 61 -179 75 -202 70
-36 -8 -60 -39 -60 -79 0 -49 -22 -104 -58 -146 -29 -35 -78 -70 -97 -70 -3 0
-5 596 -5 1325 l0 1326 -25 24 c-15 16 -36 25 -55 25 -19 0 -40 -9 -55 -25z"/>
<path d="M1065 3095 c-16 -15 -25 -36 -25 -55 0 -19 9 -40 25 -55 23 -24 31
-25 135 -25 104 0 112 1 135 25 16 15 25 36 25 55 0 19 -9 40 -25 55 -23 24
-31 25 -135 25 -104 0 -112 -1 -135 -25z"/>
<path d="M495 2786 c-41 -18 -83 -69 -91 -110 -3 -19 -4 -83 -2 -143 3 -103 5
-112 32 -147 44 -58 79 -68 222 -64 105 3 127 6 150 24 44 32 66 68 71 117 5
39 2 49 -20 71 -34 34 -79 34 -112 1 -14 -13 -25 -31 -25 -40 0 -12 -15 -15
-80 -15 l-80 0 0 80 0 80 95 0 c88 0 98 2 120 25 33 32 33 78 0 110 -23 24
-30 25 -137 25 -71 -1 -124 -6 -143 -14z"/>
<path d="M1065 2775 c-16 -15 -25 -36 -25 -55 0 -19 9 -40 25 -55 23 -24 31
-25 135 -25 104 0 112 1 135 25 16 15 25 36 25 55 0 19 -9 40 -25 55 -23 24
-31 25 -135 25 -104 0 -112 -1 -135 -25z"/>
<path d="M1065 2455 c-16 -15 -25 -36 -25 -55 0 -19 9 -40 25 -55 l24 -25 351
0 351 0 24 25 c16 15 25 36 25 55 0 19 -9 40 -25 55 l-24 25 -351 0 -351 0
-24 -25z"/>
<path d="M495 2146 c-41 -18 -83 -69 -91 -110 -3 -19 -4 -83 -2 -143 3 -103 5
-112 32 -147 44 -58 79 -68 222 -64 133 3 152 10 198 72 18 23 21 45 24 150 4
143 -6 178 -64 222 -36 28 -42 29 -163 32 -90 1 -135 -2 -156 -12z m225 -226
l0 -80 -80 0 -80 0 0 80 0 80 80 0 80 0 0 -80z"/>
<path d="M1065 2135 c-16 -15 -25 -36 -25 -55 0 -19 9 -40 25 -55 l24 -25 351
0 351 0 24 25 c16 15 25 36 25 55 0 19 -9 40 -25 55 l-24 25 -351 0 -351 0
-24 -25z"/>
<path d="M1065 1815 c-16 -15 -25 -36 -25 -55 0 -19 9 -40 25 -55 l24 -25 351
0 351 0 24 25 c16 15 25 36 25 55 0 19 -9 40 -25 55 l-24 25 -351 0 -351 0
-24 -25z"/>
<path d="M505 1496 c-33 -33 -33 -79 0 -111 22 -23 32 -25 120 -25 l95 0 0
-80 0 -80 -80 0 c-65 0 -80 3 -80 15 0 9 -11 27 -25 40 -33 33 -78 33 -112 -1
-22 -22 -25 -32 -20 -70 6 -54 47 -111 95 -131 26 -11 66 -14 158 -11 133 3
152 10 198 72 18 23 21 45 24 150 4 143 -6 178 -64 222 -36 28 -43 29 -160 32
-121 4 -124 3 -149 -22z"/>
<path d="M1065 1495 c-16 -15 -25 -36 -25 -55 0 -19 9 -40 25 -55 l24 -25
1071 0 1071 0 24 25 c16 15 25 36 25 55 0 19 -9 40 -25 55 l-24 25 -1071 0
-1071 0 -24 -25z"/>
<path d="M1065 1175 c-16 -15 -25 -36 -25 -55 0 -19 9 -40 25 -55 l24 -25 591
0 591 0 24 25 c33 32 33 78 0 110 l-24 25 -591 0 -591 0 -24 -25z"/>
<path d="M3145 855 c-24 -23 -25 -30 -25 -143 0 -155 3 -152 -154 -152 -111 0
-118 -1 -141 -25 -16 -15 -25 -36 -25 -55 0 -19 9 -40 25 -55 23 -24 29 -25
158 -25 128 0 137 1 188 28 43 22 59 38 81 81 27 51 28 60 28 188 0 129 -1
135 -25 158 -15 16 -36 25 -55 25 -19 0 -40 -9 -55 -25z"/>
<path d="M2345 535 c-16 -15 -25 -36 -25 -55 0 -19 9 -40 25 -55 23 -24 31
-25 135 -25 104 0 112 1 135 25 16 15 25 36 25 55 0 19 -9 40 -25 55 -23 24
-31 25 -135 25 -104 0 -112 -1 -135 -25z"/>
</g>
</svg>
