<?xml version="1.0" standalone="no"?>
<!DOCTYPE svg PUBLIC "-//W3C//DTD SVG 20010904//EN"
 "http://www.w3.org/TR/2001/REC-SVG-20010904/DTD/svg10.dtd">
<svg version="1.0" xmlns="http://www.w3.org/2000/svg"
 width="auto" height="auto" viewBox="0 0 512.000000 512.000000"
 preserveAspectRatio="xMidYMid meet">

<g transform="translate(0.000000,512.000000) scale(0.100000,-0.100000)"
fill="current" stroke="none">
<path d="M2826 5106 c-89 -33 -193 -180 -216 -305 -6 -31 -7 -101 -4 -161 6
-94 5 -111 -12 -139 -10 -17 -21 -31 -25 -31 -4 0 -34 32 -67 71 l-61 72 20
26 c24 33 34 88 21 121 -15 39 -142 189 -173 206 -51 26 -101 18 -156 -23
-152 -116 -1736 -1460 -1748 -1484 -20 -38 -19 -98 3 -130 9 -14 44 -58 76
-97 77 -92 118 -111 190 -87 27 9 52 13 55 8 4 -4 31 -36 60 -70 29 -34 50
-66 47 -72 -4 -6 -23 -15 -43 -20 -28 -8 -56 -5 -137 14 -55 14 -117 25 -137
25 -114 0 -262 -60 -324 -133 -21 -25 -38 -59 -46 -91 -21 -96 1 -136 213
-377 228 -260 423 -369 663 -369 129 0 232 25 545 135 124 44 143 48 235 49
78 1 107 -3 132 -17 45 -24 68 -63 67 -112 -1 -51 -25 -88 -69 -109 -58 -28
-82 -21 -140 39 -55 57 -71 63 -108 44 -29 -16 -37 -28 -37 -62 0 -41 23 -79
75 -125 85 -74 203 -79 307 -13 81 51 120 128 120 234 l0 68 121 -6 c67 -3
164 -2 215 2 50 5 92 8 92 6 0 -1 -12 -22 -27 -46 -16 -24 -98 -215 -183 -426
l-155 -382 -791 -609 c-435 -335 -794 -616 -798 -625 -12 -31 -6 -56 19 -80
l24 -25 912 0 913 0 73 73 c82 82 91 110 48 152 -37 38 -69 32 -129 -25 l-53
-50 -756 2 -757 3 694 533 c381 293 702 542 713 555 11 12 85 184 166 382 80
198 156 382 168 409 16 36 54 82 141 165 176 171 219 195 309 171 48 -13 73
-36 292 -273 104 -114 117 -132 117 -164 0 -30 -8 -44 -49 -84 -41 -42 -54
-49 -87 -49 -35 0 -45 7 -120 85 -85 89 -143 124 -204 125 -58 0 -112 -20
-147 -55 -28 -28 -33 -40 -33 -82 0 -69 -26 -160 -60 -214 -38 -58 -39 -100
-4 -128 15 -12 34 -21 44 -21 26 0 67 37 96 86 22 37 29 43 39 32 27 -28 615
-838 615 -847 0 -14 -91 -78 -146 -101 -40 -18 -95 -25 -299 -41 -137 -10
-254 -19 -258 -19 -17 0 -150 -135 -162 -165 -15 -33 -5 -70 23 -91 34 -26 62
-16 130 50 l67 63 195 12 c107 7 207 14 221 17 22 4 27 1 32 -23 5 -26 131
-242 197 -338 16 -23 45 -50 64 -59 39 -19 114 -21 150 -5 45 21 1110 924
1130 959 30 50 27 129 -4 172 -32 44 -275 260 -317 281 -45 24 -120 22 -162
-4 -18 -11 -34 -19 -35 -17 -1 2 -14 24 -29 50 -31 53 -87 103 -132 118 -31
10 -31 11 -27 70 6 81 -13 141 -61 196 -44 50 -96 80 -155 90 -39 6 -40 7 -45
56 -12 99 -87 186 -189 216 l-56 17 -7 49 c-8 60 -35 115 -79 159 -53 54 -100
72 -186 72 -80 0 -112 -12 -182 -67 l-36 -28 -40 20 c-22 11 -66 26 -99 32
l-59 11 28 106 c15 58 38 173 50 254 l22 149 25 -7 c73 -18 137 -17 192 4 102
39 168 127 177 238 4 54 1 70 -23 118 -49 101 -140 144 -184 89 -31 -40 -26
-69 19 -114 34 -33 40 -45 40 -81 0 -35 -6 -48 -40 -81 -39 -39 -42 -40 -92
-36 -66 7 -103 44 -114 115 -14 93 20 194 134 393 117 207 160 307 187 435 37
181 -3 366 -123 558 -73 118 -313 401 -359 422 -50 24 -119 29 -167 11z m121
-163 c72 -78 232 -276 270 -335 134 -207 155 -382 72 -596 -28 -73 -188 -372
-200 -372 -3 0 -16 33 -28 73 -58 178 -178 379 -339 565 -60 70 -60 68 -7 141
39 53 48 103 41 226 -8 146 9 206 81 286 43 47 73 50 110 12z m-660 -168 c21
-25 38 -50 38 -54 0 -4 -269 -234 -598 -511 -362 -304 -603 -514 -609 -529
-21 -54 40 -110 94 -88 15 7 271 217 569 467 297 250 544 453 547 451 13 -7
345 -405 399 -478 74 -100 156 -259 197 -383 113 -342 111 -652 -8 -1055 -20
-66 -36 -120 -36 -120 0 0 -27 -24 -60 -54 l-61 -53 -112 -14 c-258 -32 -450
-27 -648 16 -260 56 -520 190 -702 360 -59 55 -335 372 -447 514 -13 17 -11
21 25 53 103 92 115 105 115 130 0 55 -46 91 -95 73 -13 -5 -77 -54 -142 -110
l-118 -100 -47 52 c-26 29 -46 53 -45 54 33 32 1694 1424 1699 1424 4 0 24
-20 45 -45z m-1253 -1982 c138 -165 334 -328 484 -401 28 -15 52 -29 52 -32 0
-7 -270 -103 -360 -127 -98 -27 -286 -24 -364 5 -89 33 -160 79 -248 161 -86
81 -282 306 -300 346 -33 72 144 154 272 126 25 -5 75 -16 111 -24 79 -18 150
-9 218 27 25 13 49 21 52 18 3 -4 40 -49 83 -99z m2491 -388 c65 -32 80 -116
31 -180 l-29 -37 -64 64 c-35 34 -73 75 -83 89 l-19 26 37 27 c42 30 79 33
127 11z m255 -290 c36 -19 60 -62 60 -109 0 -40 -32 -78 -192 -224 -115 -105
-162 -128 -68 -33 45 45 70 79 78 107 19 64 15 125 -12 177 -21 42 -22 48 -7
60 46 40 93 47 141 22z m-614 -345 c48 -49 95 -102 104 -117 28 -47 87 -91
142 -108 28 -8 57 -15 63 -15 7 0 15 -22 18 -51 11 -89 84 -183 164 -210 l32
-10 -5 -62 c-8 -86 21 -162 81 -215 l44 -39 -34 -33 c-31 -30 -37 -32 -50 -20
-30 31 -694 946 -695 958 0 6 11 12 25 12 18 0 48 -24 111 -90z m906 41 c33
-37 38 -97 11 -139 -17 -28 -211 -211 -265 -249 -37 -27 -68 -29 -114 -7 -41
20 -64 59 -64 111 0 36 7 46 127 161 159 154 175 164 233 159 34 -4 51 -12 72
-36z m152 -315 c45 -19 66 -52 66 -104 0 -51 6 -44 -192 -211 -141 -118 -150
-123 -183 -117 -74 14 -108 109 -62 173 23 34 248 241 282 261 27 15 49 15 89
-2z m475 -249 c69 -62 126 -117 128 -123 5 -14 -1045 -897 -1072 -901 -16 -3
-36 23 -108 142 -49 80 -87 151 -85 159 4 21 977 836 996 836 10 -1 73 -51
141 -113z"/>
<path d="M2445 3690 c-11 -4 -78 -44 -149 -88 l-129 -79 -144 63 c-80 35 -159
64 -175 64 -40 0 -78 -40 -78 -83 0 -18 16 -98 35 -177 l36 -143 -24 -26
c-161 -176 -197 -223 -197 -260 0 -27 7 -44 25 -61 22 -21 40 -24 185 -36 88
-7 164 -15 169 -18 5 -4 40 -59 77 -123 90 -155 106 -173 153 -173 20 0 45 6
54 13 15 11 137 284 137 307 0 11 5 12 180 50 165 35 190 50 190 111 0 45 -6
52 -140 164 -58 49 -108 91 -112 95 -5 3 -1 76 8 163 9 86 13 168 10 182 -10
40 -72 71 -111 55z m-56 -313 c-6 -58 -9 -118 -5 -132 4 -15 43 -56 97 -102
l91 -77 -54 -12 c-29 -7 -80 -17 -112 -24 -34 -7 -68 -21 -81 -34 -12 -12 -39
-65 -60 -119 -21 -53 -41 -97 -44 -97 -3 0 -31 43 -61 96 -32 56 -65 101 -80
109 -14 7 -73 16 -132 20 -60 4 -108 10 -108 12 0 3 31 40 70 83 38 42 74 89
79 103 8 19 4 52 -16 132 -14 58 -23 108 -20 111 2 3 46 -13 97 -36 52 -22
108 -40 125 -40 21 0 62 20 125 59 52 33 96 58 97 57 2 -2 -2 -51 -8 -109z"/>
</g>
</svg>
