<svg version="1.0" xmlns="http://www.w3.org/2000/svg"
 width="auto" height="auto" viewBox="0 0 512.000000 512.000000"
 preserveAspectRatio="xMidYMid meet">

<g transform="translate(0.000000,512.000000) scale(0.100000,-0.100000)"
fill="current" stroke="none">
<path d="M2431 5110 c-216 -46 -385 -176 -476 -365 -54 -114 -69 -176 -68
-295 1 -183 64 -332 198 -465 139 -140 301 -202 500 -192 176 9 306 68 436
198 128 127 190 278 190 464 0 182 -61 333 -184 458 -130 132 -273 197 -452
203 -55 2 -120 -1 -144 -6z m238 -155 c180 -43 332 -192 381 -373 20 -76 14
-213 -13 -290 -142 -407 -678 -478 -916 -121 -136 204 -107 476 70 650 125
123 307 174 478 134z"/>
<path d="M2628 4523 l-158 -157 -34 33 c-44 43 -90 45 -123 7 -12 -15 -23 -37
-23 -48 0 -31 149 -178 180 -178 18 0 76 52 224 199 178 177 199 202 199 232
0 39 -32 69 -76 69 -26 0 -54 -23 -189 -157z"/>
<path d="M1549 4339 c-17 -17 -20 -30 -16 -65 l5 -44 -87 -46 c-150 -81 -174
-108 -151 -164 16 -40 60 -57 97 -37 15 8 72 38 126 66 l97 53 0 -35 c0 -38
21 -62 61 -72 45 -11 76 27 104 130 42 152 36 167 -91 209 -96 32 -118 32
-145 5z"/>
<path d="M3320 4280 c-25 -25 -27 -81 -2 -102 9 -8 62 -35 118 -60 55 -24 131
-61 168 -82 l66 -37 -20 -26 c-23 -29 -24 -42 -9 -77 21 -46 56 -51 155 -21
126 38 124 36 124 171 0 110 -1 113 -26 133 -15 12 -34 21 -44 21 -22 0 -70
-37 -70 -55 0 -29 -22 -24 -111 26 -126 69 -264 129 -299 129 -17 0 -39 -9
-50 -20z"/>
<path d="M654 4080 c-97 -25 -137 -43 -208 -94 -147 -105 -236 -282 -236 -472
0 -71 3 -83 23 -102 28 -27 67 -28 97 -4 20 16 24 32 31 113 4 52 12 108 17
124 82 264 393 384 643 249 143 -79 229 -225 229 -391 -1 -121 -25 -178 -189
-432 -90 -138 -147 -237 -150 -259 -3 -19 -12 -37 -19 -40 -9 -3 -12 39 -12
186 l0 190 35 12 c54 18 92 69 101 136 10 81 -1 172 -24 203 -43 58 -76 71
-187 71 -111 0 -144 -13 -187 -71 -23 -31 -34 -122 -24 -203 9 -67 47 -118
101 -136 l35 -12 0 -190 c0 -147 -3 -189 -12 -186 -7 3 -15 20 -19 40 -8 52
-245 417 -275 424 -60 15 -114 -38 -94 -92 5 -12 55 -94 111 -181 110 -170
110 -171 128 -346 7 -70 15 -98 38 -135 84 -137 312 -137 396 0 23 37 31 65
38 135 18 179 16 173 148 378 142 219 173 276 195 361 20 78 20 212 1 289 -82
323 -411 519 -731 435z m216 -720 l0 -60 -65 0 -65 0 0 60 0 60 65 0 65 0 0
-60z m20 -759 c0 -10 -9 -30 -21 -45 -41 -52 -149 -23 -149 41 0 22 3 23 85
23 76 0 85 -2 85 -19z"/>
<path d="M4197 4085 c-20 -12 -48 -58 -107 -175 -44 -88 -86 -160 -93 -160 -6
0 -83 -11 -170 -24 -144 -22 -162 -27 -188 -52 -34 -33 -46 -83 -29 -124 7
-17 66 -82 132 -145 l119 -115 -27 -168 c-17 -100 -25 -178 -20 -195 10 -41
48 -75 91 -83 34 -6 53 1 196 75 l159 82 153 -81 c85 -44 165 -80 178 -80 37
0 89 37 105 75 13 32 12 50 -14 202 l-29 168 129 131 c125 128 128 132 128
175 0 50 -18 83 -58 103 -15 7 -99 24 -188 36 l-161 23 -74 149 c-41 82 -84
158 -96 170 -29 27 -99 33 -136 13z m128 -315 c50 -98 74 -134 95 -145 16 -8
75 -22 132 -30 57 -8 118 -17 137 -21 l34 -5 -106 -107 c-61 -62 -109 -118
-112 -134 -4 -15 3 -86 16 -158 12 -71 20 -133 16 -136 -3 -4 -57 21 -119 54
-164 86 -152 86 -312 3 -75 -39 -136 -67 -136 -63 0 5 9 58 20 118 11 60 20
132 20 159 l0 50 -110 106 -109 107 32 5 c18 4 83 14 146 23 86 13 119 22 140
39 14 13 53 77 86 144 32 67 60 121 62 121 1 0 32 -59 68 -130z"/>
<path d="M2450 3540 c-323 -38 -607 -230 -760 -513 -50 -92 -75 -163 -105
-297 -17 -76 -50 -167 -118 -325 -109 -252 -127 -312 -127 -423 0 -109 14
-171 62 -272 55 -114 168 -230 278 -284 90 -44 201 -69 291 -64 l66 3 59 -54
c32 -29 76 -62 96 -74 l38 -22 0 -76 0 -75 -219 -88 c-287 -114 -373 -170
-466 -300 -104 -146 -135 -255 -135 -483 l0 -152 26 -20 c33 -26 65 -27 95 -2
23 18 24 26 30 193 5 147 9 182 29 233 46 119 123 215 223 279 40 25 257 119
421 182 8 3 25 -16 44 -50 111 -196 408 -208 528 -22 16 24 34 51 39 59 9 14
37 5 208 -64 208 -83 233 -88 262 -46 22 31 18 70 -7 94 -13 12 -116 59 -230
104 l-208 83 0 68 0 67 54 35 c30 19 76 56 103 82 l48 48 70 -3 c282 -11 548
192 620 474 19 74 19 201 0 281 -8 33 -59 164 -114 291 -74 172 -103 252 -116
317 -18 98 -59 222 -83 249 -19 21 -70 22 -100 1 -28 -19 -29 -65 -3 -131 10
-26 28 -94 40 -151 16 -79 44 -156 120 -335 55 -128 105 -254 112 -280 7 -29
10 -83 6 -133 -13 -210 -175 -389 -385 -425 -35 -6 -65 -10 -67 -7 -2 2 8 35
23 73 l27 70 3 440 3 440 -23 35 c-43 64 -63 68 -368 79 -346 12 -409 28 -570
147 -50 36 -75 48 -111 52 -42 4 -50 1 -85 -31 -49 -44 -114 -157 -151 -262
l-28 -80 0 -410 0 -410 26 -72 c30 -81 32 -79 -52 -63 -170 32 -320 169 -364
334 -13 49 -17 88 -13 153 6 96 2 84 136 393 58 135 86 214 102 290 28 134 59
216 116 307 116 186 294 317 509 374 112 30 298 30 410 0 141 -37 257 -102
378 -208 55 -50 87 -54 122 -18 41 40 33 71 -32 135 -148 143 -349 235 -568
260 -99 11 -120 11 -215 0z m-224 -896 c85 -57 157 -90 254 -115 71 -19 126
-23 588 -39 9 0 12 -83 12 -380 0 -429 -4 -464 -69 -571 -102 -168 -260 -259
-451 -259 -50 0 -109 7 -141 16 -174 51 -312 189 -363 363 -13 45 -16 113 -16
397 0 207 4 364 11 396 9 45 93 238 103 238 2 0 34 -21 72 -46z m358 -1509
l138 0 -4 -86 c-3 -71 -8 -93 -28 -122 -51 -75 -145 -98 -222 -55 -62 35 -82
76 -86 185 l-4 93 33 -8 c19 -4 96 -7 173 -7z"/>
<path d="M3480 693 c-60 -22 -64 -68 -14 -158 58 -105 66 -143 73 -328 6 -162
7 -170 30 -188 30 -25 62 -24 95 2 l26 20 0 153 c0 178 -18 267 -77 384 -48
97 -88 131 -133 115z"/>
</g>
</svg>
