<svg version="1.0" xmlns="http://www.w3.org/2000/svg"
 width="auto" height="auto" viewBox="0 0 512.000000 512.000000"
 preserveAspectRatio="xMidYMid meet">

<g transform="translate(0.000000,512.000000) scale(0.100000,-0.100000)"
fill="current" stroke="none">
<path d="M2443 5105 c-160 -44 -294 -172 -337 -323 l-16 -60 -128 -4 c-119 -3
-131 -5 -181 -33 -61 -34 -104 -82 -127 -142 l-16 -42 -392 -3 -391 -3 -58
-29 c-68 -35 -150 -118 -178 -180 -11 -25 -24 -78 -29 -118 -13 -97 -13 -3738
0 -3835 15 -118 73 -211 168 -271 103 -66 -13 -62 1803 -62 1624 0 1648 0
1712 20 115 36 202 123 244 244 17 48 18 129 18 1327 0 1242 -1 1277 -19 1298
-26 29 -86 29 -112 0 -18 -20 -19 -60 -24 -1309 l-5 -1288 -30 -43 c-19 -27
-50 -54 -84 -71 l-53 -28 -1648 0 -1648 0 -53 28 c-34 17 -65 44 -84 71 l-30
43 -3 1949 c-2 1904 -2 1950 17 1987 25 48 66 87 113 106 31 14 95 16 398 16
l360 0 0 -90 c0 -49 1 -93 3 -97 1 -5 -132 -10 -295 -13 -280 -5 -298 -6 -324
-26 -44 -32 -66 -69 -75 -121 -14 -83 -10 -2022 4 -2063 23 -67 111 -67 134 0
9 26 12 290 12 1048 l1 1012 296 0 296 0 45 -39 c78 -69 90 -71 510 -71 l374
0 26 26 c20 20 24 31 19 57 -13 64 0 62 -414 67 -268 4 -383 8 -398 17 -49 28
-54 50 -54 242 0 260 2 263 212 271 134 5 137 6 175 36 30 24 43 46 64 106 33
96 60 139 114 183 115 94 278 98 397 10 60 -44 93 -94 126 -191 22 -62 35 -84
65 -108 38 -30 41 -31 175 -36 210 -8 212 -11 212 -271 0 -259 0 -259 -255
-259 -163 0 -166 0 -190 -25 -32 -31 -33 -74 -2 -103 22 -21 32 -22 198 -22
202 0 242 9 312 71 l45 39 296 0 296 0 -2 -1747 -3 -1748 -1465 0 -1465 0 -5
568 -5 569 -28 24 c-35 30 -59 30 -94 0 l-28 -24 0 -579 c0 -653 -3 -628 78
-681 l41 -27 1490 -3 c1654 -3 1548 -7 1601 62 14 18 29 57 35 86 12 63 13
3430 1 3503 -9 52 -31 89 -75 121 -26 20 -44 21 -324 26 -163 3 -296 8 -294
13 1 4 2 48 2 97 l0 90 360 0 c393 0 404 -1 463 -58 64 -61 62 -37 67 -609 5
-521 5 -523 27 -544 29 -29 77 -29 106 0 22 21 22 23 25 479 3 478 -3 591 -37
667 -28 63 -110 146 -178 181 l-58 29 -391 3 -392 3 -16 42 c-23 61 -70 114
-130 144 -46 25 -64 28 -178 31 l-128 4 -16 60 c-67 236 -333 387 -571 323z"/>
<path d="M2512 4700 c-47 -44 -15 -130 48 -130 38 0 70 34 70 75 0 41 -32 75
-70 75 -14 0 -36 -9 -48 -20z"/>
<path d="M1888 3701 c-89 -29 -151 -107 -152 -193 -1 -41 3 -53 23 -69 13 -10
33 -19 46 -19 33 0 75 37 75 66 0 28 41 74 65 74 24 0 65 -46 65 -74 0 -29 42
-66 75 -66 13 0 33 9 46 19 20 16 24 28 23 68 -1 73 -47 143 -117 179 -35 19
-113 26 -149 15z"/>
<path d="M3116 3700 c-69 -22 -128 -83 -147 -154 -19 -68 12 -126 67 -126 32
0 74 37 74 66 0 28 41 74 65 74 24 0 65 -46 65 -74 0 -29 42 -66 75 -66 13 0
33 9 46 19 34 28 32 102 -4 164 -46 78 -158 124 -241 97z"/>
<path d="M2365 3385 c-33 -32 -31 -67 5 -109 95 -108 285 -108 380 0 36 42 38
77 5 109 -32 33 -64 31 -109 -4 -64 -51 -114 -49 -178 4 -37 32 -72 32 -103 0z"/>
<path d="M1659 2713 l-158 -157 -55 52 c-41 39 -62 52 -85 52 -41 0 -71 -31
-71 -73 0 -29 13 -46 94 -125 51 -51 101 -92 110 -92 36 0 77 35 254 213 153
155 182 189 182 214 0 42 -33 73 -77 73 -34 0 -49 -12 -194 -157z"/>
<path d="M2135 2675 c-32 -31 -33 -74 -2 -103 l23 -22 810 0 811 0 21 23 c29
31 28 72 -3 102 l-24 25 -806 0 -806 0 -24 -25z"/>
<path d="M1663 1878 l-162 -162 -60 57 c-65 62 -85 68 -125 36 -19 -15 -26
-29 -26 -57 0 -32 10 -46 88 -124 129 -129 111 -135 355 110 214 215 222 228
172 277 -48 49 -64 40 -242 -137z"/>
<path d="M2132 1837 c-27 -29 -28 -67 -3 -98 l19 -24 272 0 272 0 19 24 c26
32 24 73 -4 99 -23 21 -30 22 -288 22 -265 0 -266 0 -287 -23z"/>
<path d="M2979 1842 c-33 -27 -30 -78 5 -109 l27 -23 380 0 380 0 24 25 c32
31 33 74 2 103 -23 22 -27 22 -409 22 -360 0 -387 -1 -409 -18z"/>
<path d="M1665 1040 l-159 -159 -57 54 c-44 42 -65 55 -88 55 -41 0 -71 -31
-71 -73 0 -29 13 -46 94 -125 74 -73 99 -92 122 -92 24 0 61 33 226 198 213
212 219 222 177 276 -14 18 -30 26 -52 26 -28 0 -52 -20 -192 -160z"/>
<path d="M2153 1020 c-46 -19 -57 -83 -20 -118 l23 -22 812 0 c799 0 812 0
832 20 25 25 26 71 1 101 l-19 24 -804 2 c-451 1 -813 -2 -825 -7z"/>
</g>
</svg>
