<svg version="1.0" xmlns="http://www.w3.org/2000/svg"
 width="auto" height="auto" viewBox="0 0 256.000000 256.000000"
 preserveAspectRatio="xMidYMid meet">

<g transform="translate(0.000000,256.000000) scale(0.100000,-0.100000)"
fill="current" stroke="none">
<path d="M1240 2540 c-19 -5 -48 -23 -65 -42 -16 -18 -131 -217 -255 -440
l-225 -407 -318 -3 -319 -3 -29 -33 -29 -32 0 -748 c0 -829 -4 -779 66 -808
50 -21 2378 -21 2428 0 70 29 66 -21 66 808 l0 748 -29 32 -29 33 -319 3 -318
3 -225 407 c-222 402 -275 482 -318 482 -11 0 -26 2 -34 4 -7 2 -29 0 -48 -4z
m80 -116 c10 -11 11 -23 4 -42 -8 -22 -16 -27 -44 -27 -28 0 -36 5 -44 27 -12
34 6 58 44 58 15 0 33 -7 40 -16z m-118 -154 c44 -26 113 -26 157 1 18 11 35
18 37 17 2 -2 82 -146 178 -319 l175 -314 -132 -5 c-73 -3 -137 -8 -143 -12
-19 -13 -23 -46 -7 -67 14 -21 20 -21 504 -21 l489 0 0 -715 0 -715 -1180 0
-1180 0 0 715 0 715 489 0 c484 0 490 0 504 21 16 21 12 54 -7 67 -6 4 -70 9
-143 12 l-132 5 176 318 c97 174 178 317 180 317 1 0 17 -9 35 -20z"/>
<path d="M1242 1628 c-15 -15 -15 -51 0 -66 7 -7 24 -12 38 -12 31 0 50 17 50
45 0 28 -19 45 -50 45 -14 0 -31 -5 -38 -12z"/>
<path d="M179 984 c-10 -13 -8 -41 16 -166 16 -83 36 -157 43 -165 17 -16 66
-17 79 0 6 6 18 36 27 65 10 28 19 52 21 52 3 0 9 -19 15 -42 17 -64 36 -88
69 -88 15 0 35 8 43 18 18 21 72 285 63 312 -7 24 -51 37 -74 23 -9 -5 -20
-31 -25 -56 -11 -55 -21 -60 -30 -14 -9 46 -33 77 -61 77 -27 0 -46 -24 -66
-85 l-12 -40 -12 50 c-6 28 -15 56 -19 63 -10 17 -61 15 -77 -4z"/>
<path d="M606 984 c-13 -13 -16 -42 -16 -160 0 -81 5 -154 10 -165 9 -16 22
-19 93 -19 88 0 107 8 107 45 0 32 -31 55 -73 55 -26 0 -37 4 -37 15 0 11 11
15 38 15 45 0 62 14 62 52 0 32 -24 48 -69 48 -21 0 -31 5 -31 15 0 11 11 15
36 15 50 0 74 15 74 48 0 44 -16 52 -101 52 -57 0 -82 -4 -93 -16z"/>
<path d="M856 984 c-13 -13 -16 -42 -16 -160 0 -80 5 -154 10 -164 12 -22 82
-36 135 -26 26 5 39 14 45 32 15 38 -3 63 -50 70 l-40 7 0 116 c0 78 -4 121
-12 129 -17 17 -54 15 -72 -4z"/>
<path d="M1155 986 c-96 -43 -135 -168 -81 -260 50 -85 167 -114 247 -61 30
19 39 32 39 53 0 49 -43 68 -84 37 -30 -23 -79 -19 -104 8 -30 32 -29 81 4
113 26 27 30 27 120 9 25 -6 35 -3 47 15 47 67 -90 129 -188 86z"/>
<path d="M1475 977 c-187 -106 -71 -385 139 -332 121 31 171 170 101 277 -50
75 -160 101 -240 55z m143 -97 c30 -28 36 -62 18 -98 -17 -32 -34 -42 -75 -42
-61 0 -96 62 -67 118 9 17 21 32 28 35 30 12 75 6 96 -13z"/>
<path d="M1827 988 c-12 -9 -25 -56 -44 -165 -30 -170 -27 -187 31 -181 28 3
33 9 47 53 15 49 16 50 23 20 13 -51 34 -75 66 -75 32 0 53 24 66 75 7 30 8
29 23 -20 15 -47 18 -50 50 -50 54 0 58 17 32 157 -29 164 -37 187 -66 194
-46 11 -64 -4 -82 -67 -9 -32 -19 -59 -23 -59 -4 0 -13 21 -20 48 -21 76 -59
102 -103 70z"/>
<path d="M2192 988 c-8 -8 -12 -60 -12 -168 0 -108 4 -160 12 -168 16 -16 170
-16 186 0 35 35 -5 88 -65 88 -23 0 -33 5 -33 15 0 11 11 15 38 15 43 0 62 14
62 46 0 32 -26 54 -66 54 -24 0 -34 5 -34 15 0 11 11 15 39 15 62 0 93 47 55
84 -19 20 -163 23 -182 4z"/>
</g>
</svg>
