<svg version="1.0" xmlns="http://www.w3.org/2000/svg"
 width="auto" height="auto" viewBox="0 0 512.000000 512.000000"
 preserveAspectRatio="xMidYMid meet">

<g transform="translate(0.000000,512.000000) scale(0.100000,-0.100000)"
fill="current" stroke="none">
<path d="M1470 5104 c-221 -47 -408 -236 -455 -459 -8 -38 -15 -105 -15 -147
l0 -78 -227 0 c-162 0 -248 -5 -298 -15 -225 -47 -413 -235 -460 -460 -22
-105 -22 -2655 0 -2760 47 -225 235 -413 460 -460 50 -10 136 -15 298 -15
l227 0 0 -82 c1 -186 57 -327 179 -449 87 -87 183 -140 296 -164 104 -22 2066
-22 2170 0 113 24 209 77 296 164 122 122 178 263 179 449 l0 82 228 0 c161 0
247 5 297 15 225 47 413 235 460 460 22 105 22 2655 0 2760 -47 225 -235 413
-460 460 -50 10 -136 15 -297 15 l-228 0 0 78 c0 42 -7 109 -15 147 -47 225
-235 413 -460 460 -101 21 -2076 21 -2175 -1z m2153 -414 c21 -14 50 -43 65
-64 l27 -39 0 -2027 0 -2026 -25 -37 c-14 -21 -43 -50 -64 -65 l-39 -27 -1027
0 -1027 0 -39 27 c-21 15 -50 44 -64 65 l-25 37 -3 2004 c-1 1338 1 2017 8
2042 12 46 80 116 124 129 18 6 453 9 1042 8 l1010 -2 37 -25z m-2623 -2126
l0 -1455 -233 3 c-230 3 -234 3 -270 28 -21 14 -50 43 -65 64 l-27 39 -3 1300
c-1 863 1 1312 8 1337 12 46 80 116 124 129 17 5 129 10 249 10 l217 1 0
-1456z m3623 1426 c21 -14 50 -43 65 -64 l27 -39 0 -1322 0 -1322 -27 -39
c-15 -21 -44 -50 -65 -64 -36 -25 -40 -25 -270 -28 l-233 -3 0 1456 0 1456
233 -3 c230 -3 234 -3 270 -28z"/>
</g>
</svg>
