<svg version="1.0" xmlns="http://www.w3.org/2000/svg"
 width="auto" height="auto" viewBox="0 0 512.000000 512.000000"
 preserveAspectRatio="xMidYMid meet">

<g transform="translate(0.000000,512.000000) scale(0.100000,-0.100000)"
fill="current" stroke="none">
<path d="M203 5102 c-100 -35 -171 -114 -193 -216 -8 -35 -10 -250 -8 -696 3
-631 3 -646 24 -691 31 -66 78 -114 142 -146 l57 -28 453 0 454 0 24 28 c33
38 33 96 0 134 l-24 28 -434 5 c-238 3 -441 9 -451 14 -47 23 -47 26 -47 686
0 674 -1 663 55 688 38 17 4572 17 4610 0 56 -25 55 -14 55 -688 0 -660 0
-663 -47 -686 -10 -5 -674 -11 -1476 -14 l-1459 -5 -24 -28 c-33 -38 -33 -96
0 -134 24 -28 25 -28 160 -31 l136 -4 0 -98 0 -99 -637 -3 c-625 -3 -639 -3
-684 -24 -66 -31 -114 -78 -146 -142 l-28 -57 0 -675 c0 -665 0 -676 21 -721
31 -66 78 -114 142 -146 l57 -28 638 -3 637 -3 0 -619 c0 -459 3 -626 12 -645
23 -52 44 -55 338 -55 294 0 315 3 338 55 9 19 12 186 12 645 l0 619 638 3
637 3 57 28 c64 32 111 80 142 146 21 45 21 56 21 721 l0 675 -28 57 c-32 64
-80 111 -146 142 -45 21 -59 21 -683 24 l-638 3 0 99 0 100 993 2 c985 3 992
3 1038 24 66 31 114 78 146 142 l28 57 0 675 0 675 -28 57 c-32 64 -80 111
-146 142 l-46 21 -2320 2 c-2207 2 -2323 2 -2372 -15z m2507 -1882 l0 -100
-150 0 -150 0 0 100 0 100 150 0 150 0 0 -100z m1449 -314 c15 -8 32 -26 39
-41 17 -37 17 -1253 0 -1290 -26 -58 70 -55 -1638 -55 -1708 0 -1612 -3 -1638
55 -18 40 -16 1261 2 1294 29 53 -56 50 1634 51 1342 0 1577 -2 1601 -14z
m-1449 -2146 l0 -560 -150 0 -150 0 0 560 0 560 150 0 150 0 0 -560z"/>
<path d="M1340 2704 c-126 -45 -200 -148 -200 -281 0 -61 5 -80 33 -134 39
-75 79 -109 183 -154 101 -44 124 -65 124 -117 0 -30 -7 -46 -29 -69 -35 -35
-62 -36 -132 -9 -64 26 -99 20 -135 -23 -22 -26 -25 -38 -21 -71 7 -52 36 -78
123 -106 201 -67 394 68 394 277 0 61 -5 80 -32 134 -40 75 -80 109 -184 154
-101 44 -124 65 -124 117 0 30 7 46 29 69 35 35 62 36 132 9 64 -26 99 -20
135 23 21 25 25 38 21 69 -7 51 -21 66 -87 96 -71 32 -168 38 -230 16z"/>
<path d="M2065 2711 c-85 -22 -158 -78 -194 -150 -34 -67 -43 -157 -39 -389 5
-258 14 -289 105 -372 125 -114 308 -103 421 25 67 76 72 103 72 396 0 234 -2
263 -20 312 -24 63 -84 127 -147 157 -49 23 -150 34 -198 21z m142 -226 c22
-26 23 -32 23 -265 0 -238 0 -239 -24 -267 -20 -23 -32 -28 -69 -28 -54 0 -82
22 -97 74 -13 47 -13 395 0 443 22 79 116 103 167 43z"/>
<path d="M2815 2711 c-85 -22 -158 -78 -194 -150 -34 -67 -43 -157 -39 -389 5
-257 14 -289 103 -371 126 -115 310 -104 423 24 67 76 72 103 72 396 0 234 -2
263 -20 312 -24 63 -84 127 -147 157 -49 23 -150 34 -198 21z m142 -226 c22
-26 23 -32 23 -265 0 -238 0 -239 -24 -267 -20 -23 -32 -28 -69 -28 -54 0 -82
22 -97 74 -13 47 -13 395 0 443 22 79 116 103 167 43z"/>
<path d="M3381 2704 c-49 -35 -51 -54 -51 -484 0 -434 2 -451 54 -485 36 -24
94 -14 124 20 21 25 22 32 22 253 0 133 4 222 9 216 5 -5 64 -108 132 -229 68
-121 136 -233 152 -249 24 -25 33 -28 70 -23 28 4 49 14 64 32 l23 26 0 438
c0 426 -1 439 -20 464 -24 31 -81 45 -115 29 -54 -25 -60 -49 -65 -280 l-5
-214 -125 223 c-69 123 -134 234 -145 247 -27 31 -91 40 -124 16z"/>
<path d="M715 4711 c-126 -33 -203 -120 -225 -252 -13 -83 -13 -395 0 -478 19
-111 72 -185 166 -231 69 -33 188 -34 256 -1 100 48 158 133 166 242 4 59 2
68 -21 95 -21 24 -33 29 -71 29 -58 0 -82 -23 -101 -95 -19 -71 -44 -95 -99
-95 -53 0 -82 22 -96 74 -13 47 -13 395 0 442 14 52 43 74 96 74 55 0 80 -24
99 -95 19 -72 43 -95 101 -95 38 0 50 5 71 29 23 27 25 36 21 95 -8 109 -66
194 -162 240 -52 24 -152 35 -201 22z"/>
<path d="M1465 4711 c-126 -33 -203 -120 -225 -252 -13 -83 -13 -395 0 -478
19 -111 72 -185 166 -231 69 -33 188 -34 256 -1 95 46 150 122 168 232 13 83
13 395 0 478 -19 111 -72 186 -164 230 -52 24 -152 35 -201 22z m143 -226 c21
-26 22 -32 22 -265 0 -238 0 -239 -24 -267 -20 -23 -32 -28 -71 -28 -39 0 -51
5 -71 28 -24 28 -24 29 -24 265 0 255 3 271 54 293 35 14 89 2 114 -26z"/>
<path d="M2020 4692 c-19 -19 -30 -44 -35 -73 -3 -24 -5 -220 -3 -436 3 -379
4 -392 24 -420 41 -54 124 -53 161 4 16 24 19 58 23 272 l5 245 48 -71 c27
-39 60 -76 73 -82 60 -27 99 -7 161 82 l48 71 5 -246 c5 -230 6 -248 26 -275
41 -54 124 -53 161 4 16 25 18 61 21 418 2 214 0 410 -3 434 -13 86 -96 130
-156 82 -13 -10 -67 -82 -119 -160 -52 -77 -97 -140 -100 -140 -3 0 -48 63
-100 140 -52 78 -106 150 -119 160 -36 29 -87 25 -121 -9z"/>
<path d="M2943 4710 c-12 -5 -30 -21 -40 -37 -17 -25 -18 -59 -18 -453 0 -393
1 -428 18 -453 37 -57 120 -58 161 -4 20 28 21 41 24 420 2 216 0 411 -3 435
-3 23 -16 54 -28 68 -24 27 -79 39 -114 24z"/>
<path d="M3270 4692 c-19 -19 -30 -44 -35 -73 -3 -24 -5 -220 -3 -436 3 -379
4 -392 24 -420 41 -54 124 -53 161 4 15 23 19 57 23 240 l5 213 125 -222 c68
-123 137 -235 151 -250 59 -60 150 -20 164 73 3 24 5 220 3 434 -3 357 -5 393
-21 418 -37 57 -120 58 -161 4 -19 -26 -21 -45 -26 -243 l-5 -214 -125 222
c-68 123 -137 235 -151 251 -38 38 -90 37 -129 -1z"/>
<path d="M4265 4711 c-86 -22 -156 -77 -197 -154 -22 -41 -23 -50 -23 -337 0
-287 1 -296 23 -337 30 -58 79 -105 138 -133 69 -33 188 -34 256 -1 99 48 151
123 169 245 14 93 5 158 -26 194 -22 26 -27 27 -120 27 -94 0 -98 -1 -121 -28
-45 -53 -22 -145 41 -161 32 -8 33 -36 1 -73 -20 -23 -32 -28 -71 -28 -39 0
-51 5 -71 28 -24 28 -24 29 -24 267 0 238 0 239 24 267 20 23 32 28 70 28 58
0 82 -23 101 -95 19 -72 43 -95 101 -95 38 0 50 5 71 29 23 27 25 36 21 95 -8
109 -66 194 -162 240 -52 24 -152 35 -201 22z"/>
<path d="M1494 3511 c-56 -24 -72 -109 -30 -158 20 -23 32 -28 71 -28 60 0 95
35 95 95 0 70 -72 118 -136 91z"/>
</g>
</svg>
