<svg version="1.0" xmlns="http://www.w3.org/2000/svg"
width="auto" height="auto" viewBox="0 0 512.000000 512.000000"
preserveAspectRatio="xMidYMid meet">

<g transform="translate(0.000000,512.000000) scale(0.100000,-0.100000)"
fill="current" stroke="none">
<path d="M580 5055 c-222 -41 -418 -222 -479 -445 -20 -72 -21 -98 -21 -830 0
-838 -2 -808 67 -950 50 -104 168 -222 273 -274 82 -40 186 -66 266 -66 l52 0
4 -222 c4 -198 6 -228 25 -269 62 -139 208 -207 349 -164 57 18 72 31 369 324
l310 306 5 -630 5 -630 26 -66 c39 -102 76 -157 153 -235 53 -53 92 -81 156
-113 140 -68 163 -71 695 -71 l470 0 310 -310 c346 -344 358 -354 475 -354
104 0 194 51 245 138 34 58 45 144 45 349 l0 177 48 0 c79 0 183 27 272 71
156 76 282 233 325 404 22 89 22 1542 0 1630 -52 204 -210 375 -410 443 l-80
27 -607 3 -608 3 0 613 c0 580 -1 617 -20 691 -58 226 -255 409 -485 450 -115
20 -2122 20 -2235 0z m2188 -235 c119 -22 221 -99 274 -208 l33 -67 0 -765 0
-765 -29 -62 c-35 -76 -113 -153 -193 -191 l-58 -27 -537 -5 -538 -5 -112
-110 c-62 -60 -215 -211 -339 -333 -161 -160 -232 -223 -245 -220 -39 7 -44
41 -44 321 0 354 10 339 -225 347 -137 5 -155 8 -210 33 -76 35 -147 105 -188
182 l-32 60 0 770 0 770 33 67 c51 105 155 186 266 208 59 11 2082 12 2144 0z
m1794 -1788 c81 -33 160 -108 200 -190 l33 -67 0 -765 0 -765 -33 -67 c-41
-83 -120 -158 -200 -189 -46 -18 -83 -23 -192 -26 -236 -7 -224 12 -230 -355
-5 -272 -6 -291 -24 -304 -11 -8 -24 -14 -30 -14 -6 0 -154 143 -331 319 -176
175 -331 326 -345 335 -22 14 -78 16 -525 16 -543 0 -569 2 -660 56 -59 34
-122 104 -153 172 l-27 57 -3 623 -2 622 362 0 c408 0 449 5 576 66 59 28 96
56 158 118 95 95 144 184 170 307 l18 80 590 -3 591 -3 57 -23z"/>
<path d="M1591 4429 c-165 -28 -300 -160 -276 -270 9 -42 58 -79 104 -79 42 0
56 9 97 64 36 50 93 76 164 76 176 0 227 -142 94 -262 -26 -24 -71 -65 -102
-93 -65 -60 -98 -120 -112 -208 -10 -66 -2 -149 18 -169 16 -16 80 -26 118
-18 56 13 74 35 74 94 0 100 13 122 135 241 94 91 119 122 147 180 98 211 -24
402 -284 445 -72 11 -102 11 -177 -1z"/>
<path d="M1593 3350 c-40 -24 -53 -48 -53 -100 0 -80 64 -139 137 -127 49 8
77 29 97 72 24 50 14 99 -29 142 -27 27 -41 33 -76 33 -26 0 -57 -8 -76 -20z"/>
<path d="M2628 2180 c-72 -22 -128 -96 -128 -170 0 -112 112 -199 219 -170 80
21 131 86 131 165 0 86 -49 153 -128 175 -42 11 -56 11 -94 0z"/>
<path d="M3366 2176 c-126 -47 -162 -196 -69 -289 155 -156 398 65 257 233
-49 58 -123 79 -188 56z"/>
<path d="M4107 2176 c-77 -28 -117 -86 -117 -166 0 -82 46 -144 125 -170 104
-34 224 57 225 169 1 117 -126 207 -233 167z"/>
</g>
</svg>
