<svg version="1.0" xmlns="http://www.w3.org/2000/svg"
width="auto" height="auto" viewBox="0 0 512.000000 512.000000"
preserveAspectRatio="xMidYMid meet">

<g transform="translate(0.000000,512.000000) scale(0.100000,-0.100000)"
fill="current" stroke="none">
<path id="path0" d="M107.200 48.362 C 106.374 48.823,102.313 49.784,101.700 49.663 C 101.425 49.609,101.200 49.753,101.200 49.982 C 101.200 50.212,100.930 50.400,100.600 50.400 C 100.270 50.400,100.000 50.580,100.000 50.800 C 100.000 51.020,99.550 51.200,99.000 51.200 C 98.450 51.200,98.000 51.391,98.000 51.624 C 98.000 51.857,97.820 51.936,97.600 51.800 C 97.380 51.664,97.200 51.738,97.200 51.965 C 97.200 52.191,96.467 52.713,95.570 53.124 C 94.674 53.535,93.978 54.028,94.024 54.221 C 94.070 54.413,93.769 54.757,93.354 54.985 C 92.939 55.213,92.454 55.629,92.275 55.908 C 92.097 56.188,91.782 56.312,91.575 56.185 C 91.369 56.057,91.200 56.241,91.200 56.592 C 91.200 56.944,90.480 57.917,89.600 58.754 C 88.720 59.591,88.000 60.582,88.000 60.955 C 88.000 61.328,87.640 62.020,87.200 62.492 C 86.760 62.964,86.400 63.587,86.400 63.875 C 86.400 64.164,86.249 64.400,86.064 64.400 C 85.879 64.400,85.489 65.435,85.197 66.700 C 84.905 67.965,84.516 69.198,84.334 69.440 C 83.783 70.169,83.914 330.814,84.465 331.479 C 84.720 331.786,84.905 332.658,84.876 333.418 C 84.848 334.178,84.999 334.800,85.212 334.800 C 85.425 334.800,85.600 335.171,85.600 335.624 C 85.600 336.077,85.780 336.336,86.000 336.200 C 86.355 335.981,86.595 336.822,86.437 337.730 C 86.406 337.911,86.565 337.945,86.790 337.806 C 87.016 337.667,87.200 337.889,87.200 338.301 C 87.200 338.712,87.560 339.436,88.000 339.908 C 88.440 340.380,88.800 340.882,88.800 341.023 C 88.800 341.164,89.340 341.783,90.000 342.400 C 90.660 343.017,91.200 343.646,91.200 343.800 C 91.200 344.268,95.366 347.986,95.900 347.993 C 96.175 347.997,96.400 348.180,96.400 348.400 C 96.400 348.620,96.760 348.800,97.200 348.800 C 97.640 348.800,98.000 348.991,98.000 349.224 C 98.000 349.457,98.153 349.552,98.341 349.436 C 98.529 349.320,99.024 349.484,99.441 349.800 C 99.858 350.116,100.526 350.380,100.924 350.387 C 101.322 350.394,101.533 350.584,101.394 350.810 C 101.255 351.035,101.289 351.194,101.470 351.163 C 102.516 350.981,104.413 351.255,104.225 351.560 C 104.102 351.758,104.671 351.920,105.488 351.920 C 106.305 351.920,107.036 352.108,107.112 352.337 C 107.208 352.623,122.356 352.764,155.303 352.788 L 203.356 352.822 204.308 351.711 C 204.832 351.100,205.922 349.879,206.731 348.998 C 207.539 348.117,210.181 345.237,212.603 342.598 C 215.024 339.959,217.724 337.012,218.603 336.048 C 222.019 332.302,222.552 331.724,224.740 329.400 C 225.983 328.080,228.980 324.848,231.400 322.218 C 237.067 316.058,236.646 316.514,239.203 313.767 C 240.414 312.465,243.384 309.240,245.803 306.600 C 248.221 303.960,251.222 300.720,252.470 299.400 C 255.445 296.256,256.725 294.799,257.476 293.700 L 258.092 292.800 287.047 292.800 L 316.003 292.800 315.999 181.000 C 315.996 107.260,315.859 69.200,315.597 69.200 C 315.379 69.200,315.197 68.435,315.194 67.500 C 315.190 66.540,315.053 66.012,314.878 66.288 C 314.682 66.596,314.373 66.117,314.040 64.988 C 313.749 64.005,313.352 63.200,313.156 63.200 C 312.960 63.200,312.800 62.840,312.800 62.400 C 312.800 61.960,312.620 61.600,312.400 61.600 C 312.180 61.600,312.000 61.229,312.000 60.776 C 312.000 60.323,311.820 60.064,311.600 60.200 C 311.380 60.336,311.200 60.187,311.200 59.869 C 311.200 59.550,310.662 58.865,310.004 58.345 C 309.346 57.825,308.806 57.175,308.804 56.900 C 308.802 56.625,308.665 56.397,308.500 56.394 C 308.067 56.384,305.423 54.000,305.846 54.000 C 306.295 54.000,302.287 51.796,300.300 50.951 C 299.475 50.600,298.800 50.153,298.800 49.957 C 298.800 49.760,298.443 49.600,298.006 49.600 C 296.976 49.600,293.598 48.806,292.710 48.355 C 291.823 47.906,108.005 47.913,107.200 48.362 M282.400 102.600 L 282.400 112.800 200.000 112.800 L 117.600 112.800 117.600 102.600 L 117.600 92.400 200.000 92.400 L 282.400 92.400 282.400 102.600 M282.400 148.200 L 282.400 158.400 200.000 158.400 L 117.600 158.400 117.600 148.200 L 117.600 138.000 200.000 138.000 L 282.400 138.000 282.400 148.200 M282.400 193.800 L 282.400 203.600 200.000 203.600 L 117.600 203.600 117.600 193.800 L 117.600 184.000 200.000 184.000 L 282.400 184.000 282.400 193.800 M236.400 239.400 L 236.400 249.600 177.000 249.600 L 117.600 249.600 117.600 239.400 L 117.600 229.200 177.000 229.200 L 236.400 229.200 236.400 239.400 " stroke="none" fill="#4c94cc" fill-rule="evenodd"></path><path id="path1" d="M272.700 293.100 C 280.675 293.160,293.725 293.160,301.700 293.100 C 309.675 293.039,303.150 292.990,287.200 292.990 C 271.250 292.990,264.725 293.039,272.700 293.100 M258.000 293.840 C 257.719 294.458,247.874 305.234,243.700 309.493 C 242.545 310.671,241.600 311.733,241.600 311.853 C 241.600 311.974,241.263 312.371,240.850 312.736 C 240.438 313.101,238.969 314.660,237.586 316.200 C 236.203 317.740,233.885 320.263,232.436 321.808 C 230.986 323.352,228.270 326.295,226.400 328.348 C 222.673 332.440,222.834 332.265,216.760 338.823 C 207.919 348.367,205.600 350.953,205.600 351.272 C 205.600 351.452,217.255 351.614,231.500 351.631 C 245.745 351.647,257.670 351.715,258.000 351.781 C 258.528 351.886,258.588 349.361,258.499 330.650 C 258.364 302.416,258.241 293.310,258.000 293.840 M218.329 352.700 C 225.660 352.761,237.540 352.761,244.729 352.700 C 251.918 352.639,245.920 352.589,231.400 352.589 C 216.880 352.589,210.998 352.639,218.329 352.700 " stroke="none" fill="#448bc3" fill-rule="evenodd"></path><path id="path2" d="M258.800 322.000 C 258.800 337.840,258.882 350.800,258.983 350.800 C 259.252 350.800,272.149 337.624,283.291 325.964 C 286.531 322.574,292.291 316.625,296.091 312.745 C 299.891 308.865,305.548 303.015,308.661 299.745 C 311.775 296.475,314.460 293.665,314.628 293.500 C 314.796 293.335,302.303 293.200,286.867 293.200 L 258.800 293.200 258.800 322.000 M311.802 297.998 C 311.403 298.439,311.207 298.800,311.367 298.800 C 311.788 298.800,312.928 297.595,312.712 297.379 C 312.611 297.278,312.202 297.556,311.802 297.998 M263.608 347.722 C 262.846 348.704,262.799 348.861,263.406 348.400 C 264.550 347.532,265.200 346.890,265.200 346.629 C 265.200 346.077,264.525 346.541,263.608 347.722 " stroke="none" fill="#3474ac" fill-rule="evenodd"></path><path id="path3" d="M257.484 293.688 C 256.725 294.798,255.454 296.246,252.470 299.400 C 246.544 305.665,241.547 311.200,241.819 311.200 C 242.120 311.200,243.554 309.748,248.400 304.530 C 253.900 298.609,257.813 294.261,258.137 293.712 C 258.708 292.741,258.146 292.720,257.484 293.688 M240.733 311.964 C 240.660 312.163,238.530 314.548,236.000 317.262 C 233.470 319.976,230.410 323.275,229.200 324.592 C 227.990 325.909,225.983 328.070,224.740 329.393 C 222.549 331.727,221.994 332.329,218.603 336.048 C 217.724 337.012,215.024 339.959,212.603 342.598 C 210.181 345.237,207.539 348.117,206.731 348.998 C 204.616 351.305,203.580 352.523,203.697 352.564 C 204.030 352.681,258.946 352.161,258.700 352.043 C 258.535 351.964,258.220 351.855,258.000 351.800 C 257.780 351.745,245.900 351.678,231.600 351.650 C 217.300 351.623,205.600 351.452,205.600 351.272 C 205.600 350.953,207.919 348.367,216.760 338.823 C 222.834 332.265,222.673 332.440,226.400 328.348 C 228.270 326.295,230.986 323.352,232.436 321.808 C 233.885 320.263,236.203 317.740,237.586 316.200 C 238.969 314.660,240.438 313.101,240.850 312.736 C 241.263 312.371,241.600 311.966,241.600 311.836 C 241.600 311.458,240.880 311.564,240.733 311.964 " stroke="none" fill="#4c8cc4" fill-rule="evenodd"></path><path id="path4" d="M258.525 322.000 C 258.487 337.950,258.579 351.290,258.728 351.645 C 258.992 352.272,260.497 352.130,260.430 351.484 C 260.340 350.622,260.442 350.378,260.800 350.600 C 261.020 350.736,261.200 350.556,261.200 350.200 C 261.200 349.844,261.380 349.664,261.600 349.800 C 261.820 349.936,262.000 349.862,262.000 349.635 C 262.000 349.408,264.970 346.245,268.600 342.606 C 272.230 338.967,275.200 335.824,275.200 335.621 C 275.200 335.419,275.556 335.141,275.992 335.003 C 276.427 334.864,276.742 334.537,276.692 334.276 C 276.641 334.014,276.825 333.845,277.100 333.900 C 277.375 333.955,277.600 333.719,277.600 333.376 C 277.600 333.033,277.735 332.835,277.900 332.934 C 278.065 333.034,278.432 332.865,278.716 332.558 C 278.999 332.251,279.110 332.000,278.961 332.000 C 278.812 332.000,279.354 331.472,280.166 330.827 C 280.978 330.182,281.633 329.552,281.621 329.427 C 281.547 328.638,281.634 328.300,281.853 328.520 C 282.161 328.828,285.041 326.004,284.900 325.533 C 284.845 325.350,284.982 325.200,285.205 325.200 C 285.427 325.200,286.912 323.829,288.505 322.153 C 290.097 320.477,292.512 317.974,293.870 316.590 C 295.229 315.206,296.234 313.967,296.104 313.837 C 295.973 313.707,296.077 313.600,296.333 313.600 C 296.931 313.600,301.191 309.324,300.891 309.025 C 300.768 308.901,300.977 308.800,301.357 308.800 C 301.737 308.800,301.936 308.621,301.801 308.402 C 301.666 308.183,301.972 307.813,302.482 307.581 C 302.992 307.349,303.720 306.616,304.101 305.953 C 304.520 305.224,304.976 304.862,305.258 305.036 C 305.523 305.200,305.617 305.150,305.475 304.922 C 305.339 304.701,305.671 304.283,306.214 303.993 C 306.756 303.702,307.200 303.329,307.200 303.163 C 307.200 302.813,309.914 299.793,313.500 296.153 C 314.875 294.757,316.000 293.521,316.000 293.407 C 316.000 292.427,314.027 294.116,308.950 299.443 C 305.678 302.877,299.891 308.862,296.091 312.743 C 292.291 316.625,286.531 322.574,283.291 325.964 C 272.194 337.576,259.253 350.800,258.986 350.800 C 258.887 350.800,258.758 337.795,258.700 321.900 L 258.595 293.000 258.525 322.000 " stroke="none" fill="#3c7cb4" fill-rule="evenodd"></path></g></svg>