<?xml version="1.0" standalone="no"?>
<!DOCTYPE svg PUBLIC "-//W3C//DTD SVG 20010904//EN"
 "http://www.w3.org/TR/2001/REC-SVG-20010904/DTD/svg10.dtd">
<svg version="1.0" xmlns="http://www.w3.org/2000/svg"
 width="auto" height="auto" viewBox="0 0 512.000000 512.000000"
 preserveAspectRatio="xMidYMid meet">

<g transform="translate(0.000000,512.000000) scale(0.100000,-0.100000)"
fill="current" stroke="none">
<path d="M779 5105 c-184 -34 -346 -116 -481 -244 -270 -256 -363 -618 -249
-972 100 -310 360 -546 689 -626 97 -23 295 -23 397 1 319 74 580 302 685 598
l18 53 1322 3 c1482 2 1366 8 1418 -71 l27 -41 0 -435 c0 -432 0 -436 -22
-471 -39 -63 -84 -80 -209 -80 l-109 0 -19 45 c-42 105 -173 150 -274 96 -29
-15 -266 -203 -315 -250 -53 -50 -70 -87 -70 -151 0 -93 20 -117 230 -284 160
-126 182 -139 246 -139 88 0 160 49 188 128 l12 32 176 6 c196 6 257 18 361
73 133 70 235 190 287 339 l28 80 0 575 0 575 -27 81 c-50 145 -154 268 -288
338 -147 77 -12 70 -1566 74 l-1390 3 -34 82 c-55 135 -107 214 -210 317 -113
113 -216 178 -357 226 -159 53 -311 66 -464 39z m309 -171 c494 -101 763 -646
539 -1090 -35 -69 -106 -174 -119 -174 -3 0 -17 19 -31 43 -24 41 -127 147
-144 147 -4 0 -16 7 -27 15 -17 13 -16 16 22 62 230 277 116 691 -224 814 -86
32 -235 32 -326 1 -343 -118 -462 -549 -226 -817 27 -31 38 -50 30 -53 -38
-12 -132 -97 -166 -151 -22 -34 -43 -61 -47 -61 -4 0 -33 38 -64 84 -213 321
-167 724 113 988 180 170 430 241 670 192z m-7 -360 c69 -31 140 -102 171
-171 17 -37 22 -68 22 -138 0 -79 -3 -96 -27 -143 -39 -74 -90 -127 -151 -157
-175 -86 -379 -18 -463 154 -24 49 -28 68 -28 146 0 106 19 157 86 230 102
110 252 141 390 79z m3497 -314 c178 -25 323 -162 361 -338 15 -73 15 -1031 0
-1104 -27 -128 -119 -246 -232 -298 -82 -39 -165 -50 -381 -50 -171 0 -181 -1
-203 -22 -18 -17 -23 -32 -23 -69 0 -55 -21 -85 -48 -69 -47 27 -297 237 -297
250 0 21 301 261 318 254 9 -3 17 -27 20 -61 4 -38 13 -63 28 -79 22 -24 26
-24 206 -24 203 0 230 6 315 67 58 42 103 111 123 191 14 52 16 125 13 489 -3
421 -3 429 -26 486 -45 110 -149 189 -274 208 -35 5 -625 9 -1333 9 l-1270 0
2 82 c1 46 2 84 2 86 2 7 2646 0 2699 -8z m-3374 -524 c73 -30 168 -150 152
-191 -8 -22 -138 -84 -225 -107 -56 -15 -106 -21 -191 -21 -85 0 -135 6 -191
21 -86 23 -217 85 -225 107 -8 21 29 96 67 134 66 66 87 71 347 71 177 0 241
-3 266 -14z"/>
<path d="M2133 2975 c-28 -8 -102 -61 -213 -149 -188 -150 -210 -179 -210
-266 0 -88 22 -116 215 -270 97 -77 188 -143 203 -147 42 -12 116 -7 148 10
40 21 80 65 98 109 l16 37 412 3 c471 4 464 2 541 88 47 52 67 103 67 170 0
67 -20 118 -67 170 -77 86 -70 84 -541 88 l-412 3 -16 37 c-23 56 -72 101
-128 117 -58 18 -58 18 -113 0z m87 -224 c0 -33 6 -56 19 -72 l19 -24 467 -5
467 -5 24 -28 c31 -36 31 -78 0 -114 l-24 -28 -467 -5 -467 -5 -19 -24 c-13
-16 -19 -39 -19 -72 0 -36 -4 -51 -18 -58 -15 -8 -45 11 -168 110 -103 82
-149 125 -149 139 0 14 46 57 149 139 123 99 153 118 168 110 14 -7 18 -22 18
-58z"/>
<path d="M515 2809 c-223 -33 -404 -184 -483 -401 l-27 -73 -3 -551 c-3 -619
-2 -637 65 -773 68 -139 212 -256 373 -306 39 -12 107 -19 237 -22 l182 -6 7
-30 c10 -46 81 -111 138 -126 88 -22 123 -6 296 132 149 119 197 163 214 197
39 75 21 172 -41 231 -55 52 -286 236 -327 260 -48 28 -128 28 -183 1 -47 -24
-77 -58 -95 -108 l-12 -34 -109 0 c-129 0 -166 13 -205 73 l-27 41 0 435 c0
436 0 436 23 472 46 75 35 73 438 79 l360 5 60 30 c184 94 184 356 0 450 l-60
30 -380 2 c-210 0 -408 -3 -441 -8z m788 -170 c30 -8 42 -18 53 -44 17 -40 3
-89 -30 -108 -15 -9 -123 -13 -381 -17 -357 -5 -360 -5 -410 -29 -66 -33 -131
-100 -163 -169 l-27 -57 0 -465 0 -465 27 -57 c32 -69 97 -136 161 -167 63
-30 167 -44 314 -39 112 3 123 5 147 27 21 20 26 34 26 72 0 50 21 85 43 72
49 -29 307 -247 304 -256 -3 -12 -267 -230 -299 -248 -27 -15 -48 15 -48 69 0
33 -6 52 -22 69 -21 22 -26 23 -207 23 -102 0 -214 5 -249 10 -180 26 -323
160 -361 338 -15 73 -15 1031 0 1104 37 175 180 311 355 337 88 13 721 13 767
0z"/>
<path d="M4058 1870 c-107 -17 -183 -41 -284 -90 -122 -59 -232 -144 -313
-242 -66 -79 -151 -235 -176 -323 -9 -30 -19 -55 -22 -55 -2 0 -58 42 -123 93
-139 111 -180 127 -264 103 -58 -17 -107 -61 -130 -118 l-16 -37 -412 -3
c-409 -3 -413 -3 -460 -26 -158 -78 -197 -273 -81 -402 77 -86 70 -85 540 -88
l413 -3 18 -42 c31 -69 113 -127 182 -127 47 0 102 30 211 116 119 94 138 102
139 57 0 -25 61 -164 102 -234 59 -101 209 -250 316 -313 484 -287 1101 -94
1338 418 119 259 107 582 -32 834 -129 236 -365 413 -624 468 -85 18 -250 25
-322 14z m325 -192 c304 -84 520 -336 559 -653 28 -230 -52 -457 -221 -626
-214 -213 -520 -282 -801 -179 -240 87 -410 273 -481 525 -29 103 -31 277 -5
375 85 313 325 530 641 579 82 13 221 4 308 -21z m-1289 -605 c82 -65 146
-124 146 -133 0 -13 -195 -179 -292 -248 -29 -21 -48 1 -48 58 0 32 -6 56 -19
71 l-19 24 -467 5 -467 5 -24 28 c-29 34 -31 76 -4 110 l21 26 465 3 466 3 24
28 c18 21 24 40 24 76 0 90 18 85 194 -56z"/>
<path d="M4248 1043 l-238 -237 -65 64 c-59 58 -69 65 -106 65 -51 0 -79 -30
-79 -84 0 -34 9 -46 109 -144 94 -93 112 -107 142 -107 30 0 58 24 312 278
270 269 279 280 279 318 0 47 -37 84 -85 84 -27 0 -59 -28 -269 -237z"/>
</g>
</svg>
