<svg version="1.0" xmlns="http://www.w3.org/2000/svg"
 width="auto" height="auto" viewBox="0 0 512.000000 512.000000"
 preserveAspectRatio="xMidYMid meet">

<g transform="translate(0.000000,512.000000) scale(0.100000,-0.100000)"
fill="current" stroke="none">
<path d="M2259 4531 c-22 -23 -29 -39 -29 -70 0 -35 8 -49 61 -108 72 -81 134
-200 154 -298 10 -47 15 -132 15 -258 l0 -187 -54 44 c-55 45 -133 86 -215
113 -64 22 -512 31 -548 12 -48 -26 -53 -53 -53 -264 0 -233 13 -314 71 -431
75 -152 220 -277 382 -330 69 -22 107 -27 245 -33 l162 -6 -29 -61 c-35 -74
-85 -132 -149 -172 -100 -64 -70 -62 -1007 -62 -564 0 -871 -4 -909 -11 -122
-22 -231 -97 -293 -200 -62 -104 -63 -116 -63 -716 0 -358 4 -560 11 -595 26
-125 122 -242 246 -301 l68 -32 893 0 894 0 24 28 c26 30 32 83 14 118 -27 50
-7 49 -911 49 -634 0 -852 3 -883 12 -54 16 -128 90 -144 144 -9 30 -12 185
-12 581 l0 539 26 52 c14 29 41 64 60 78 71 55 57 54 988 54 957 0 927 -2
1060 67 47 25 97 63 149 114 l77 77 78 -78 c61 -61 95 -86 162 -118 47 -22
109 -45 138 -51 36 -7 331 -11 911 -11 917 0 910 0 980 -49 17 -12 43 -43 58
-69 l28 -47 3 -545 c2 -412 0 -556 -10 -590 -16 -58 -87 -131 -144 -148 -31
-9 -262 -12 -947 -12 l-905 0 -31 -26 c-56 -47 -48 -136 16 -163 21 -9 269
-11 963 -9 l935 3 68 32 c122 58 208 161 242 288 23 88 22 1122 0 1210 -42
161 -175 284 -341 314 -38 7 -346 11 -914 11 -822 0 -859 1 -913 19 -111 38
-188 109 -241 221 l-31 65 -3 238 -4 237 184 0 c201 1 294 13 402 54 195 74
365 239 447 434 50 121 59 195 59 482 l0 262 -29 29 -29 29 -262 0 c-199 0
-279 -4 -338 -16 -158 -32 -301 -112 -415 -232 -47 -50 -59 -58 -64 -44 -42
116 -118 235 -197 310 -68 64 -109 70 -157 23z m1291 -424 c0 -151 -4 -198
-20 -262 -55 -215 -232 -385 -445 -430 -38 -8 -117 -15 -174 -15 l-105 0 207
208 c204 206 207 210 207 251 0 60 -41 101 -101 101 -41 0 -45 -3 -251 -207
l-208 -207 0 105 c0 131 20 224 66 315 80 160 236 279 409 314 22 4 124 8 228
9 l187 1 0 -183z m-1411 -536 c195 -61 320 -235 321 -446 l0 -60 -137 137
c-76 75 -151 142 -167 148 -36 13 -90 -2 -111 -33 -8 -12 -15 -40 -15 -62 0
-38 6 -46 140 -180 77 -77 140 -144 140 -149 0 -13 -146 0 -206 18 -121 37
-236 148 -285 274 -19 48 -23 82 -27 215 l-4 157 145 0 c114 0 158 -4 206 -19z"/>
<path d="M548 1924 c-46 -25 -50 -57 -46 -460 3 -346 4 -373 22 -392 10 -12
31 -24 46 -27 32 -7 84 15 94 40 3 9 6 122 6 251 0 132 4 233 9 230 5 -3 81
-111 171 -241 89 -129 173 -244 187 -255 37 -29 79 -26 114 9 l29 29 0 379 c0
408 -1 416 -54 441 -30 15 -60 11 -91 -12 -19 -14 -20 -29 -25 -266 l-5 -251
-179 260 c-199 288 -213 301 -278 265z"/>
<path d="M1430 1933 c-41 -13 -60 -29 -70 -56 -14 -41 -14 -719 1 -770 16 -58
47 -67 229 -67 170 0 213 11 231 57 11 31 7 58 -15 88 -13 18 -29 21 -148 25
l-133 5 -3 93 -3 92 93 0 c151 0 188 18 188 92 0 65 -14 72 -152 78 l-123 5 0
95 0 95 133 5 c119 4 135 7 148 25 22 30 26 57 15 88 -18 47 -61 57 -228 56
-81 0 -155 -3 -163 -6z"/>
<path d="M2020 1927 c-59 -30 -59 -27 24 -447 65 -332 79 -387 99 -407 33 -33
84 -39 124 -14 29 18 37 35 82 178 27 87 60 193 73 235 13 43 25 78 28 78 4 0
34 -93 69 -207 35 -115 69 -222 76 -240 17 -40 66 -67 110 -59 66 13 69 21
150 426 41 206 75 382 75 392 0 9 -11 29 -24 44 -18 21 -32 28 -60 28 -68 0
-76 -17 -127 -277 l-46 -232 -41 130 c-22 72 -54 175 -71 229 -17 54 -37 109
-45 122 -21 30 -67 39 -105 20 -32 -17 -45 -52 -148 -393 -15 -51 -30 -93 -33
-93 -4 0 -26 100 -49 223 -24 122 -48 230 -55 238 -13 19 -49 39 -68 39 -7 0
-24 -6 -38 -13z"/>
<path d="M3135 1928 c-45 -24 -45 -22 -45 -434 0 -216 3 -400 6 -409 14 -35
58 -45 207 -45 217 0 301 35 360 151 57 111 41 242 -37 318 l-34 33 19 42 c59
129 -13 294 -150 341 -53 18 -294 21 -326 3z m306 -187 c21 -25 25 -71 9 -101
-13 -25 -62 -40 -131 -40 l-59 0 0 86 0 86 81 -4 c70 -3 83 -6 100 -27z m48
-337 c39 -33 50 -83 27 -131 -22 -47 -66 -63 -171 -63 l-85 0 0 110 0 110 99
0 c92 0 102 -2 130 -26z"/>
<path d="M3879 1911 l-29 -29 0 -392 0 -392 29 -29 c18 -17 40 -29 56 -29 16
0 38 12 56 29 l29 29 0 392 0 392 -29 29 c-18 17 -40 29 -56 29 -16 0 -38 -12
-56 -29z"/>
<path d="M4265 1926 c-54 -23 -55 -35 -55 -437 0 -409 1 -417 61 -438 40 -14
302 -14 351 -1 43 12 58 34 58 82 0 66 -13 72 -162 78 l-133 5 -3 91 -3 92
115 3 c105 4 117 6 140 28 34 32 36 88 3 119 -20 19 -36 22 -137 24 l-115 3 0
95 0 95 133 5 c149 6 162 12 162 78 0 48 -15 70 -58 82 -55 15 -320 12 -357
-4z"/>
<path d="M2465 751 c-37 -16 -60 -51 -60 -93 0 -33 6 -45 34 -70 29 -26 39
-30 75 -25 52 7 86 44 86 93 0 46 -14 70 -50 89 -32 16 -55 18 -85 6z"/>
</g>
</svg>
