<svg version="1.0" xmlns="http://www.w3.org/2000/svg"
 width="auto" height="auto" viewBox="0 0 512.000000 512.000000"
 preserveAspectRatio="xMidYMid meet">

<g transform="translate(0.000000,512.000000) scale(0.100000,-0.100000)"
fill="current" stroke="none">
<path d="M2390 5077 c-93 -31 -156 -71 -225 -141 -187 -190 -218 -484 -74
-712 69 -109 207 -212 327 -244 31 -8 42 -15 38 -26 -9 -23 -34 -162 -46 -255
l-12 -87 -51 -6 c-108 -14 -215 -93 -258 -191 -75 -169 3 -397 183 -530 l26
-20 -14 -120 c-30 -259 39 -480 205 -658 128 -136 285 -221 456 -247 44 -7 86
-14 93 -16 8 -2 12 -26 12 -74 0 -70 0 -70 -27 -70 -21 1 -35 11 -54 39 -80
114 -268 102 -332 -21 -15 -30 -28 -40 -60 -49 -128 -34 -273 -128 -361 -235
-98 -119 -119 -175 -230 -618 -113 -453 -120 -512 -78 -598 30 -60 89 -119
150 -149 l47 -24 1420 0 c1366 0 1421 1 1455 19 49 26 89 65 111 109 42 80 39
98 -76 570 -59 241 -118 466 -132 500 -76 189 -248 349 -445 416 -42 14 -56
25 -74 57 -70 126 -253 138 -333 23 -21 -31 -32 -38 -59 -39 l-32 0 2 346 3
346 95 1 c84 2 103 6 162 34 159 75 252 237 234 408 -8 83 -62 189 -126 249
-44 41 -50 52 -50 88 l0 40 33 -24 c46 -36 71 -41 106 -23 35 18 49 55 33 90
-6 13 -47 51 -91 85 l-80 62 -3 372 c-5 411 -7 427 -73 562 -45 93 -83 134
-124 134 -63 0 -92 -72 -52 -128 37 -54 73 -136 87 -201 10 -49 14 -149 14
-382 l0 -316 -76 -6 c-42 -4 -80 -4 -85 -1 -5 3 -9 51 -9 107 0 57 -7 126 -15
157 -50 187 -202 344 -395 406 -48 15 -115 18 -555 23 -482 6 -502 7 -553 28
-363 148 -359 654 6 796 64 25 67 24 79 -45 23 -135 97 -234 221 -295 l76 -38
435 -5 c394 -5 441 -7 493 -24 54 -18 58 -18 83 -2 55 36 51 100 -7 129 -82
41 -155 47 -559 47 -320 0 -394 3 -430 15 -96 34 -157 112 -166 214 -10 107
-69 171 -158 171 -22 0 -69 -11 -105 -23z m1050 -1128 c84 -13 189 -69 242
-128 50 -56 95 -150 104 -214 l7 -47 -49 22 c-46 22 -62 23 -269 23 l-220 0
-67 -33 c-75 -37 -127 -90 -155 -158 -10 -24 -23 -44 -30 -44 -7 0 -21 21 -33
48 -28 62 -101 136 -164 163 -39 17 -76 24 -153 27 -57 2 -103 5 -103 6 0 19
33 231 42 265 21 89 -19 81 406 81 215 0 405 -5 442 -11z m-695 -508 c111 -50
136 -175 64 -312 -121 -227 -446 -225 -559 4 -68 138 -43 259 64 308 35 16 67
19 216 19 148 0 181 -3 215 -19z m952 -2 c30 -14 52 -35 69 -66 24 -39 26 -52
22 -116 -11 -163 -131 -284 -294 -295 -97 -6 -158 15 -228 79 -62 56 -93 113
-105 189 -16 99 16 172 91 209 39 19 60 21 222 21 162 0 184 -2 223 -21z m413
-219 l0 -50 -85 0 -85 0 0 44 c0 44 0 45 38 49 20 2 58 4 85 5 l47 2 0 -50z
m-1014 -217 c44 -65 134 -134 212 -164 80 -31 204 -37 288 -14 69 19 161 73
208 124 19 20 39 31 57 31 15 0 46 9 70 20 28 12 66 20 104 20 230 0 338 -271
173 -431 -69 -67 -182 -87 -267 -49 -57 26 -103 26 -127 -1 -18 -20 -19 -47
-24 -513 -6 -549 -3 -526 -79 -609 -116 -126 -320 -124 -435 4 -63 70 -76 116
-76 276 l0 133 115 0 c102 0 117 2 135 20 25 25 26 71 1 101 -19 24 -22 24
-268 30 -219 5 -255 8 -306 27 -113 41 -180 84 -262 167 -151 151 -210 335
-182 566 l8 67 102 4 c90 3 110 7 172 36 38 18 77 40 87 49 15 14 20 12 53
-13 26 -20 52 -29 89 -32 48 -4 55 -2 74 23 25 32 27 44 10 80 -7 16 -25 29
-51 37 -21 6 -41 17 -44 24 -3 7 15 44 38 82 l43 70 23 -56 c12 -31 39 -80 59
-109z m-252 -1369 c13 -13 16 -44 16 -182 0 -201 14 -275 71 -392 104 -209
332 -350 569 -350 290 0 548 202 620 486 16 62 20 111 20 250 0 144 3 175 16
188 20 21 48 20 69 -1 15 -15 17 -39 12 -212 -5 -221 -14 -269 -76 -396 -95
-192 -272 -337 -481 -392 -88 -24 -272 -24 -360 0 -92 24 -214 87 -294 151
-76 61 -112 70 -146 36 -12 -12 -20 -33 -20 -54 0 -27 9 -42 45 -75 99 -91
237 -165 380 -204 115 -31 316 -31 433 1 216 58 398 188 521 371 99 146 140
280 149 493 l7 148 75 -37 c52 -26 96 -59 146 -108 113 -113 126 -148 251
-656 98 -403 106 -439 93 -468 -26 -65 67 -61 -1435 -61 -1493 0 -1405 -4
-1458 59 -44 53 -44 81 8 293 133 551 155 630 192 701 48 91 139 182 229 229
120 62 110 71 117 -99 7 -171 35 -298 75 -345 21 -25 84 -24 107 2 20 22 17
67 -11 160 -12 40 -18 109 -21 251 -5 174 -3 197 12 212 21 21 49 22 69 1z
m212 -121 c61 -183 196 -305 371 -335 189 -32 383 71 468 247 18 39 36 78 39
88 3 10 15 17 31 17 l25 0 0 -115 c0 -62 -5 -138 -11 -167 -18 -86 -68 -177
-134 -243 -193 -193 -498 -193 -690 0 -105 105 -145 218 -145 407 0 112 1 118
20 118 11 0 23 -8 26 -17z"/>
<path d="M4035 2891 c-77 -35 -125 -103 -125 -179 0 -73 75 -108 125 -57 14
13 25 35 25 48 0 29 29 57 59 57 30 0 71 43 71 75 0 14 -11 37 -25 50 -29 30
-73 32 -130 6z"/>
<path d="M2803 2670 c-54 -22 -56 -80 -5 -130 91 -91 265 -88 358 5 34 34 33
87 -2 114 -35 27 -51 26 -98 -5 -56 -39 -102 -42 -149 -10 -45 31 -74 38 -104
26z"/>
<path d="M352 3959 c-212 -36 -369 -241 -349 -455 12 -128 83 -246 190 -315
33 -22 62 -40 63 -42 1 -1 37 -281 79 -622 46 -369 83 -629 91 -641 27 -44
104 -38 125 10 9 20 -3 142 -60 603 -39 318 -74 588 -76 601 -4 15 -1 22 9 22
8 0 49 -65 94 -151 l81 -152 135 -1082 c75 -595 136 -1089 136 -1098 0 -14
-12 -17 -73 -17 l-72 0 -62 497 c-68 543 -66 536 -132 536 -67 0 -82 -38 -65
-168 20 -148 19 -158 -15 -178 -45 -26 -119 -106 -151 -162 -51 -90 -61 -144
-67 -353 l-6 -193 -38 -20 c-53 -27 -108 -84 -133 -138 -32 -71 -29 -189 6
-257 15 -28 48 -70 73 -92 85 -74 70 -73 721 -70 l579 3 53 30 c179 98 210
345 60 480 -78 71 -109 79 -328 83 l-196 4 -33 272 c-19 149 -36 288 -39 309
l-5 37 60 0 c162 0 262 -95 281 -267 15 -128 62 -202 160 -250 151 -74 333 -3
392 153 18 49 20 78 20 283 l0 228 73 5 c85 6 140 30 197 89 40 42 80 129 80
177 1 22 10 33 53 57 148 85 140 307 -14 386 l-39 19 0 208 c0 239 -7 273 -72
347 -22 25 -64 58 -92 73 -51 27 -53 27 -256 27 -193 0 -208 -1 -255 -23 -64
-29 -110 -74 -143 -137 -21 -41 -27 -69 -31 -154 l-6 -104 -272 506 -271 506
14 40 c48 139 14 300 -86 414 -95 107 -245 160 -388 136z m177 -165 c57 -24
99 -62 131 -117 133 -234 -116 -497 -357 -377 -117 59 -174 181 -143 309 38
158 217 248 369 185z m513 -1170 c178 -330 328 -609 335 -619 11 -19 27 -20
408 -25 l397 -5 19 -24 c25 -30 24 -76 -1 -101 -19 -19 -33 -20 -453 -20 -410
0 -435 1 -451 19 -13 14 -692 1270 -699 1292 -2 7 116 90 120 85 2 -1 148
-272 325 -602z m938 -12 c19 -9 45 -32 57 -51 22 -32 23 -43 23 -232 l0 -199
-39 0 -40 0 -3 174 c-3 200 -9 216 -79 216 -64 0 -69 -17 -69 -217 l0 -173
-45 0 -45 0 0 177 c0 201 -4 213 -70 213 -68 0 -75 -17 -78 -216 l-3 -174 -40
0 -40 0 3 204 c3 188 5 207 24 233 40 55 73 63 249 63 132 0 166 -3 195 -18z
m-997 -509 c107 -200 189 -340 209 -360 38 -37 95 -63 136 -63 27 0 30 -4 36
-42 10 -62 38 -118 82 -161 57 -57 108 -79 192 -85 l72 -5 0 -221 c0 -201 -2
-224 -20 -253 -41 -68 -114 -89 -178 -53 -50 28 -68 64 -80 161 -18 149 -97
261 -229 326 -69 34 -85 38 -174 41 l-99 4 -5 32 c-5 30 -125 989 -125 1000 0
3 2 6 4 6 2 0 83 -147 179 -327z m1077 -438 c0 -24 -25 -67 -55 -95 -26 -25
-30 -25 -208 -28 -168 -2 -185 -1 -215 18 -35 21 -72 74 -72 103 0 16 20 17
275 17 242 0 275 -2 275 -15z m-1520 -771 c16 -133 30 -249 30 -258 0 -14 -13
-16 -91 -16 l-91 0 4 193 c3 177 5 195 26 234 30 56 86 121 89 102 2 -8 16
-123 33 -255z m880 -449 c92 -55 98 -185 12 -250 -26 -19 -45 -20 -588 -23
l-560 -2 -35 22 c-61 42 -86 126 -55 186 19 37 58 71 92 82 16 5 270 8 564 7
518 -2 536 -3 570 -22z"/>
</g>
</svg>
