<?xml version="1.0" standalone="no"?>
<!DOCTYPE svg PUBLIC "-//W3C//DTD SVG 20010904//EN"
 "http://www.w3.org/TR/2001/REC-SVG-20010904/DTD/svg10.dtd">
<svg version="1.0" xmlns="http://www.w3.org/2000/svg"
 width="auto" height="auto" viewBox="0 0 512.000000 512.000000"
 preserveAspectRatio="xMidYMid meet">

<g transform="translate(0.000000,512.000000) scale(0.100000,-0.100000)"
fill="current" stroke="none">
<path d="M390 5104 c-187 -50 -341 -208 -379 -392 -8 -36 -11 -345 -11 -990
l0 -938 23 -44 c12 -25 37 -55 56 -67 34 -23 37 -23 402 -23 l369 0 0 -857 c0
-505 4 -887 10 -928 27 -194 185 -370 375 -420 48 -12 130 -15 437 -15 l378 0
0 -152 c0 -140 2 -156 23 -192 14 -25 39 -48 66 -63 l44 -23 631 0 c594 0 633
2 672 19 23 10 52 34 65 52 22 32 24 45 29 194 l5 160 145 6 c193 8 261 34
373 139 89 83 156 217 157 313 0 15 3 27 8 27 4 0 106 -99 227 -220 251 -251
273 -266 385 -258 77 6 117 24 171 80 71 74 87 191 39 290 -15 30 -177 197
-542 558 -517 512 -520 515 -499 534 11 10 27 16 36 12 9 -3 37 -1 63 6 41 10
66 30 205 167 165 163 190 194 201 250 15 84 12 88 -392 494 -208 208 -394
387 -414 398 -41 21 -102 25 -144 9 -15 -6 -65 -47 -111 -92 l-83 -82 0 815
c0 717 -2 822 -16 870 -54 183 -197 322 -375 364 -95 22 -2545 21 -2629 -1z
m253 -187 c74 -34 141 -97 174 -166 l28 -56 3 -937 2 -938 -340 0 -340 0 0
914 c0 889 1 916 20 979 33 107 132 199 244 228 54 14 150 3 209 -24z m2398 2
c69 -33 129 -91 166 -161 l28 -53 -1 -925 c-1 -509 -5 -950 -8 -980 l-8 -55
-209 -211 c-194 -194 -213 -210 -240 -206 -64 9 -107 -20 -281 -196 -139 -139
-168 -174 -177 -209 -22 -80 -5 -112 137 -255 l126 -128 -349 0 c-210 0 -365
-4 -387 -10 -21 -6 -51 -22 -68 -37 -58 -48 -60 -60 -60 -316 0 -129 -5 -258
-10 -288 -21 -112 -83 -196 -181 -249 -125 -67 -272 -49 -376 45 -60 53 -98
121 -112 199 -8 42 -11 626 -11 1926 0 1687 -2 1872 -16 1921 -19 64 -57 141
-91 187 l-24 32 1048 -2 1048 -3 56 -26z m986 -2201 c194 -194 353 -358 353
-363 0 -13 -263 -275 -276 -275 -5 0 -169 160 -364 355 l-355 355 140 140 c77
77 142 140 145 140 3 0 164 -159 357 -352z m-292 -898 c-104 -104 -195 -190
-200 -190 -6 0 -143 133 -305 295 l-295 295 195 195 195 195 300 -300 300
-300 -190 -190z m-325 -439 c-32 -36 -94 -101 -137 -143 l-78 -78 -360 360
-360 360 140 140 140 140 357 -357 357 -357 -59 -65z m1023 -149 c567 -567
547 -543 488 -603 -21 -20 -39 -29 -63 -29 -30 0 -76 43 -550 517 l-518 518
57 57 c32 32 60 58 63 58 3 0 238 -233 523 -518z m-544 64 l214 -214 -6 -111
c-7 -141 -35 -209 -114 -281 -79 -72 -135 -90 -288 -90 l-124 0 -15 28 c-21
39 -74 90 -120 115 -41 22 -45 22 -621 22 -577 0 -580 0 -621 -22 -45 -24
-108 -89 -119 -122 -6 -20 -12 -21 -167 -21 l-160 0 22 33 c44 66 90 174 100
237 5 36 10 163 10 283 l0 217 432 0 432 0 180 -179 c100 -99 194 -185 209
-190 86 -33 134 -7 305 162 170 167 202 211 202 277 0 40 12 70 30 70 3 0 101
-96 219 -214z m-526 -708 c44 -23 46 -34 47 -230 l0 -188 -595 0 -595 0 0 186
0 186 29 29 29 29 532 0 c385 0 537 -3 553 -12z"/>
<path d="M1309 4581 c-37 -38 -39 -82 -4 -116 l24 -25 804 0 804 0 20 23 c11
12 24 32 27 44 9 30 -19 81 -50 93 -15 6 -335 10 -810 10 l-786 0 -29 -29z"/>
<path d="M1343 4093 c-31 -6 -63 -49 -63 -85 0 -17 10 -39 25 -53 l24 -25 801
0 c511 0 808 4 820 10 10 5 24 25 30 44 15 46 -7 89 -51 105 -23 8 -260 11
-798 10 -421 -1 -776 -4 -788 -6z"/>
<path d="M1305 3555 c-32 -31 -32 -75 -1 -112 l24 -28 789 -3 c580 -2 795 1
816 9 34 14 61 62 51 92 -3 12 -16 32 -27 45 l-20 22 -804 0 -804 0 -24 -25z"/>
<path d="M1322 3063 c-17 -6 -42 -57 -42 -83 0 -12 13 -35 29 -51 l30 -29 800
2 800 3 23 22 c33 33 30 89 -6 119 l-27 24 -797 -1 c-438 0 -803 -3 -810 -6z"/>
<path d="M1309 2531 c-42 -43 -34 -106 18 -130 16 -8 188 -11 559 -11 l535 0
24 25 c17 16 25 35 25 60 0 25 -8 44 -25 60 l-24 25 -541 0 -542 0 -29 -29z"/>
<path d="M1309 2021 c-37 -38 -39 -82 -4 -116 l24 -25 334 0 c321 0 334 1 355
20 29 27 37 63 20 96 -24 52 -37 54 -381 54 l-319 0 -29 -29z"/>
</g>
</svg>
