<svg version="1.0" xmlns="http://www.w3.org/2000/svg"
 width="auto" height="auto" viewBox="0 0 512.000000 512.000000"
 preserveAspectRatio="xMidYMid meet">

<g transform="translate(0.000000,512.000000) scale(0.100000,-0.100000)"
fill="current" stroke="none">
<path d="M2534 5000 c-55 -22 -54 -7 -54 -626 l0 -571 25 -27 c32 -35 86 -36
120 -1 l25 24 0 579 0 579 -22 21 c-28 25 -66 34 -94 22z"/>
<path d="M1516 4449 c-14 -17 -26 -39 -26 -49 0 -18 100 -303 119 -338 6 -11
25 -25 42 -32 28 -12 36 -11 68 6 61 33 61 56 -4 239 -61 175 -82 205 -140
205 -25 0 -40 -8 -59 -31z"/>
<path d="M3503 4465 c-22 -16 -38 -52 -104 -242 -37 -106 -39 -115 -25 -146
28 -68 118 -71 152 -5 22 42 114 303 114 322 0 22 -19 58 -39 73 -22 17 -72
16 -98 -2z"/>
<path d="M405 4248 c-44 -25 -58 -75 -34 -120 16 -29 273 -354 317 -400 42
-44 84 -50 126 -17 31 25 36 81 9 119 -51 75 -325 410 -342 419 -25 14 -51 13
-76 -1z"/>
<path d="M4653 4250 c-32 -13 -143 -158 -143 -187 0 -31 25 -79 45 -87 30 -11
73 -6 93 12 12 9 44 46 72 81 37 47 50 72 50 96 0 47 -8 64 -41 80 -32 17 -44
18 -76 5z"/>
<path d="M4396 3938 c-13 -13 -94 -112 -180 -221 -133 -170 -156 -203 -156
-233 0 -70 86 -111 138 -66 12 9 93 109 181 221 136 173 161 209 161 238 0 73
-89 110 -144 61z"/>
<path d="M856 3639 c-41 -33 -36 -84 15 -151 55 -70 78 -88 115 -88 48 0 84
34 84 80 0 30 -10 51 -46 99 -25 34 -54 66 -64 71 -30 16 -75 11 -104 -11z"/>
<path d="M32 3380 c-30 -28 -38 -68 -21 -99 8 -14 75 -72 149 -128 114 -87
141 -103 172 -103 28 0 42 7 62 31 50 59 33 87 -116 202 -68 52 -133 99 -145
106 -33 17 -77 13 -101 -9z"/>
<path d="M4985 3368 c-42 -24 -222 -153 -252 -182 -39 -35 -44 -80 -13 -118
26 -34 61 -39 107 -17 60 28 266 181 282 210 40 72 -49 149 -124 107z"/>
<path d="M1305 3037 c-88 -42 -137 -106 -154 -201 -6 -33 -11 -61 -11 -63 0
-1 -26 0 -59 3 -78 9 -150 -16 -209 -70 -61 -56 -84 -110 -90 -216 l-5 -87
-72 5 c-57 3 -81 0 -116 -15 -62 -28 -110 -72 -139 -130 l-25 -48 -3 -655 c-2
-491 0 -662 9 -683 14 -33 59 -56 94 -49 13 2 34 15 47 29 l23 25 5 652 c5
706 3 676 59 697 28 11 83 -4 103 -28 10 -13 14 -109 18 -449 l5 -432 24 -26
c34 -36 88 -36 122 0 l24 26 3 613 2 613 27 26 c35 35 94 36 128 1 l25 -24 0
-553 c0 -352 4 -567 11 -590 18 -67 100 -87 145 -36 18 19 19 57 24 737 3 394
9 724 13 733 12 24 68 47 99 41 14 -3 37 -16 50 -30 l23 -25 3 -747 2 -748 26
-23 c36 -34 89 -33 120 4 l24 27 0 613 c0 423 3 623 11 645 11 31 52 61 84 61
32 0 73 -30 84 -61 8 -22 11 -275 11 -841 l0 -809 25 -24 c35 -36 85 -37 122
-3 21 20 22 27 25 307 3 254 5 289 21 312 50 74 162 58 187 -28 8 -27 11 -148
8 -403 -4 -349 -5 -368 -27 -430 -29 -83 -45 -113 -93 -178 -67 -90 -179 -165
-308 -207 -30 -10 -63 -24 -72 -32 -45 -40 -25 -123 35 -142 28 -9 46 -8 103
10 207 63 372 207 465 404 66 143 70 178 67 630 -3 450 -2 439 -81 518 -68 68
-156 92 -264 73 l-43 -8 0 439 0 438 -24 50 c-50 107 -121 150 -247 150 l-87
0 -16 50 c-34 108 -123 176 -240 182 -60 3 -79 0 -121 -20z"/>
<path d="M3618 3045 c-81 -30 -151 -110 -167 -188 l-7 -32 -76 3 c-61 3 -85 0
-124 -18 -67 -29 -120 -84 -144 -147 -19 -51 -20 -79 -20 -483 l0 -430 -42 6
c-24 3 -48 7 -54 9 -5 2 -35 -1 -65 -7 -95 -16 -181 -90 -215 -185 -20 -57
-20 -762 0 -867 53 -275 272 -509 542 -580 49 -13 62 -13 90 -1 55 23 71 81
34 128 -13 16 -42 32 -78 42 -197 57 -346 206 -408 410 -16 53 -18 100 -19
431 0 404 1 411 57 440 35 18 62 18 99 -2 55 -28 59 -55 59 -354 l0 -271 25
-24 c35 -36 85 -37 122 -3 l23 21 2 828 3 827 23 25 c30 32 67 41 104 26 59
-24 58 -11 58 -678 0 -364 4 -620 10 -635 25 -67 128 -67 156 0 12 28 14 159
14 759 0 501 3 733 11 747 6 11 26 26 45 34 29 12 39 12 68 0 19 -8 39 -23 45
-34 8 -14 11 -177 11 -504 0 -440 2 -486 18 -518 21 -43 66 -59 108 -39 52 25
54 36 54 407 0 350 2 371 39 399 25 19 86 16 112 -6 l24 -19 5 -620 5 -620 24
-26 c17 -18 35 -26 57 -26 95 0 94 -4 94 480 0 457 0 459 63 479 40 13 72 4
102 -29 19 -22 20 -38 23 -644 2 -388 -1 -663 -8 -733 -18 -194 -84 -373 -189
-518 -39 -53 -51 -78 -51 -105 0 -62 56 -102 113 -81 57 22 196 253 247 411
55 170 53 141 57 930 4 824 8 783 -69 866 -57 62 -124 88 -215 82 l-73 -5 0
71 c0 39 -5 88 -10 108 -18 62 -71 128 -130 162 -49 28 -64 31 -136 31 l-82 0
-6 43 c-13 95 -71 178 -152 217 -50 24 -156 30 -206 10z"/>
<path d="M3880 1703 c-38 -11 -60 -28 -70 -56 -13 -40 -13 -206 1 -246 21 -60
103 -77 145 -29 26 28 33 226 11 280 -15 36 -56 59 -87 51z"/>
<path d="M486 699 c-31 -25 -34 -63 -10 -147 42 -144 187 -398 246 -428 54
-28 111 1 124 62 4 24 -4 44 -51 114 -73 109 -105 174 -146 289 -18 51 -41
102 -53 112 -26 25 -77 24 -110 -2z"/>
</g>
</svg>
