<svg version="1.0" xmlns="http://www.w3.org/2000/svg"
 width="auto" height="auto" viewBox="0 0 512.000000 512.000000"
 preserveAspectRatio="xMidYMid meet">

<g transform="translate(0.000000,512.000000) scale(0.100000,-0.100000)"
fill="current" stroke="none">
<path d="M320 5106 c-147 -41 -267 -162 -306 -310 -20 -76 -20 -4396 0 -4472
41 -155 171 -280 324 -313 75 -16 4368 -16 4444 0 157 33 293 170 327 327 16
75 16 4369 0 4444 -33 153 -158 283 -313 324 -72 19 -4406 19 -4476 0z m4485
-183 c47 -25 95 -74 121 -123 17 -32 19 -66 22 -367 l3 -333 -2391 0 -2391 0
3 333 c3 301 5 335 22 367 36 68 97 120 166 141 14 4 1011 7 2215 6 l2190 -2
40 -22z m140 -2783 c0 -1722 -1 -1786 -19 -1820 -26 -49 -74 -98 -121 -123
l-40 -22 -2205 0 c-2131 0 -2206 1 -2240 19 -49 26 -98 74 -123 121 l-22 40
-3 1775 c-1 976 0 1781 3 1788 3 10 486 12 2387 10 l2383 -3 0 -1785z"/>
<path d="M510 4761 c-37 -13 -68 -34 -97 -64 -123 -131 -77 -342 92 -413 83
-34 214 -5 277 62 63 68 87 190 53 271 -54 128 -195 190 -325 144z m123 -163
c53 -28 64 -92 22 -133 -65 -65 -173 9 -133 91 13 28 50 54 76 54 7 0 23 -5
35 -12z"/>
<path d="M1200 4765 c-101 -32 -172 -131 -173 -240 0 -80 25 -136 83 -188 166
-150 425 -34 423 188 -1 112 -73 209 -177 240 -60 18 -97 18 -156 0z m120
-170 c30 -15 46 -52 41 -90 -3 -29 -48 -65 -81 -65 -33 0 -78 36 -81 65 -5 37
11 74 39 89 35 19 46 19 82 1z"/>
<path d="M1894 4769 c-108 -31 -184 -132 -184 -243 1 -147 108 -256 253 -256
97 0 175 45 220 129 37 67 43 124 22 197 -38 130 -182 211 -311 173z m127
-185 c37 -34 32 -99 -10 -131 -49 -38 -131 6 -131 69 1 75 86 112 141 62z"/>
<path d="M1390 3655 c-204 -42 -375 -156 -491 -327 -93 -137 -135 -293 -126
-468 6 -122 30 -208 90 -325 50 -98 187 -240 287 -298 135 -78 317 -116 471
-97 302 36 541 230 642 517 26 75 31 106 35 214 5 146 -14 244 -72 364 -148
310 -503 488 -836 420z m265 -170 c202 -42 377 -195 445 -388 31 -87 38 -249
15 -336 -70 -268 -303 -452 -575 -454 -167 -1 -300 54 -421 173 -189 186 -233
454 -113 693 51 100 163 211 264 261 128 62 252 79 385 51z"/>
<path d="M1135 3045 c-35 -34 -33 -78 4 -116 18 -17 40 -29 56 -29 32 0 85 49
85 80 0 29 -26 76 -45 84 -35 13 -76 6 -100 -19z"/>
<path d="M1815 3038 c-32 -38 -29 -81 11 -115 78 -70 184 48 109 122 -36 37
-86 34 -120 -7z"/>
<path d="M1320 2810 c-30 -30 -34 -63 -12 -106 79 -154 281 -190 402 -73 97
95 85 199 -22 199 -33 0 -42 -5 -66 -39 -30 -45 -70 -66 -105 -57 -14 3 -41
26 -61 51 -33 39 -42 45 -77 45 -25 0 -46 -7 -59 -20z"/>
<path d="M2980 3567 c-49 -16 -133 -102 -148 -153 -9 -30 -12 -174 -12 -521
l0 -479 28 -55 c30 -60 91 -112 150 -129 23 -6 213 -10 503 -10 529 0 527 0
603 76 69 68 76 102 76 346 0 208 0 209 -25 233 -27 27 -79 33 -106 12 -35
-26 -39 -54 -39 -241 0 -197 -6 -226 -47 -245 -16 -8 -165 -11 -474 -11 l-450
0 -24 25 -25 24 0 459 c0 438 1 461 19 483 l19 24 467 5 467 5 24 28 c31 37
31 81 -1 112 l-24 25 -473 -1 c-314 -1 -485 -5 -508 -12z"/>
<path d="M3908 3173 l-408 -407 -108 107 c-103 101 -119 112 -167 108 -30 -3
-65 -47 -65 -84 0 -27 20 -52 153 -184 138 -138 156 -153 187 -153 32 0 65 31
473 438 241 240 445 450 453 465 28 52 -14 117 -75 117 -33 0 -60 -24 -443
-407z"/>
<path d="M1374 1945 c-147 -32 -267 -99 -379 -210 -152 -152 -225 -327 -225
-540 0 -425 339 -765 762 -765 132 0 221 21 348 82 92 44 115 61 195 142 73
73 100 109 138 182 109 214 117 463 21 672 -104 227 -302 387 -542 437 -83 18
-237 18 -318 0z m301 -170 c173 -44 320 -162 393 -316 47 -98 62 -162 62 -264
0 -102 -15 -166 -62 -264 -96 -201 -305 -331 -533 -331 -341 0 -612 286 -592
625 7 117 36 206 98 299 80 121 190 202 327 242 93 28 220 31 307 9z"/>
<path d="M1173 1362 c-13 -2 -32 -15 -43 -29 -66 -84 50 -184 125 -108 59 58
3 151 -82 137z"/>
<path d="M1843 1355 c-17 -7 -35 -26 -43 -44 -35 -87 82 -157 140 -83 11 13
20 37 20 52 0 35 -32 76 -64 82 -13 3 -37 -1 -53 -7z"/>
<path d="M1470 1101 c-74 -24 -142 -85 -169 -149 -18 -44 0 -89 45 -108 43
-18 60 -11 115 47 62 66 87 66 150 -2 51 -56 87 -65 133 -36 68 45 24 162 -85
221 -54 30 -143 42 -189 27z"/>
<path d="M3013 1870 c-78 -18 -153 -86 -182 -163 -7 -18 -11 -197 -11 -513 0
-523 -1 -517 54 -589 13 -17 48 -44 77 -60 l54 -30 495 0 c488 0 496 0 535 22
53 28 99 78 124 133 20 43 21 64 21 525 l0 480 -24 50 c-12 28 -41 67 -64 87
-74 66 -89 68 -596 67 -248 -1 -465 -4 -483 -9z m973 -193 l24 -28 0 -454 0
-454 -24 -28 -24 -28 -444 -3 c-243 -1 -453 0 -465 3 -12 3 -32 15 -43 27 -19
21 -20 33 -20 483 l0 462 23 20 c12 11 29 23 37 26 8 3 217 5 463 4 l449 -2
24 -28z"/>
</g>
</svg>
