<?xml version="1.0" standalone="no"?>
<!DOCTYPE svg PUBLIC "-//W3C//DTD SVG 20010904//EN"
 "http://www.w3.org/TR/2001/REC-SVG-20010904/DTD/svg10.dtd">
<svg version="1.0" xmlns="http://www.w3.org/2000/svg"
 width="auto" height="auto" viewBox="0 0 512.000000 512.000000"
 preserveAspectRatio="xMidYMid meet">

<g transform="translate(0.000000,512.000000) scale(0.100000,-0.100000)"
fill="current" stroke="none">
<path d="M1362 4348 c-414 -414 -760 -765 -768 -780 -11 -22 -14 -105 -14
-466 l0 -439 -92 -6 c-154 -10 -262 -59 -358 -163 -56 -62 -102 -153 -119
-232 -7 -35 -11 -253 -11 -650 0 -648 0 -654 56 -765 38 -74 80 -124 146 -173
86 -63 154 -86 277 -93 l103 -6 19 -75 c59 -234 226 -402 457 -461 73 -18 124
-19 1502 -19 1391 0 1429 1 1504 20 211 54 377 212 448 425 l23 70 3 961 3
961 92 6 c153 10 261 59 357 163 56 62 102 153 119 232 14 70 15 1207 1 1283
-13 67 -59 168 -102 222 -43 54 -136 121 -206 148 -39 15 -89 24 -161 28
l-103 6 -19 72 c-60 237 -224 404 -457 464 -72 18 -119 19 -1011 19 l-935 0
-754 -752z m2658 591 c166 -38 327 -202 356 -361 l6 -38 -694 0 c-606 0 -701
-2 -749 -16 -170 -50 -303 -193 -344 -368 -14 -58 -15 -153 -13 -684 3 -611 4
-618 26 -676 46 -123 132 -221 244 -277 116 -58 120 -59 861 -59 l677 0 0
-922 c0 -1015 0 -1003 -61 -1119 -37 -70 -136 -166 -203 -198 -108 -53 -46
-51 -1566 -51 -918 0 -1430 4 -1459 11 -128 29 -257 133 -316 253 -19 39 -37
88 -41 109 l-6 37 695 0 c664 0 698 1 758 20 125 39 234 132 295 252 54 106
55 127 52 796 -3 609 -4 618 -25 676 -56 147 -153 245 -300 304 l-68 27 -707
3 -708 3 0 399 0 400 533 0 c440 0 543 3 590 15 164 43 295 166 350 328 21 60
22 83 25 605 l3 542 872 0 c565 0 888 -4 917 -11z m-1942 -659 l-3 -405 -27
-57 c-35 -76 -98 -142 -167 -175 l-56 -28 -490 -3 -490 -3 615 616 615 615 3
-77 c2 -43 2 -260 0 -483z m2700 77 c68 -36 124 -94 159 -165 l28 -57 3 -335
c3 -287 1 -333 -11 -320 -8 8 -52 61 -100 116 -47 56 -107 115 -133 132 -142
95 -322 107 -472 31 -69 -34 -131 -96 -297 -294 -65 -77 -125 -148 -134 -157
-15 -16 -19 -13 -70 47 -107 130 -242 191 -399 183 -100 -6 -173 -30 -245 -83
-26 -20 -109 -108 -185 -197 -75 -89 -149 -176 -164 -193 l-28 -30 3 550 2
550 27 55 c44 89 128 163 218 191 14 4 412 7 885 6 l860 -2 53 -28z m-222
-712 c75 -22 111 -54 269 -240 l145 -170 -2 -180 -3 -181 -33 -66 c-38 -77
-92 -130 -171 -167 l-56 -26 -640 -3 -639 -3 20 23 c12 13 182 214 379 448
197 234 379 447 404 473 44 47 98 82 151 98 42 12 123 10 176 -6z m-1073 -271
c51 -17 110 -65 179 -146 l46 -54 -237 -280 -237 -279 -119 0 c-108 1 -126 3
-176 27 -71 32 -129 85 -160 142 -21 41 -22 46 -8 63 9 10 102 120 208 245
186 221 225 257 300 284 50 18 148 17 204 -2z m-1302 -895 c79 -37 133 -90
171 -167 l33 -67 3 -600 c4 -674 3 -683 -66 -773 -44 -58 -65 -76 -127 -110
l-50 -27 -875 0 -875 0 -50 27 c-68 35 -128 97 -162 166 l-28 57 0 630 0 630
26 55 c47 101 126 168 228 196 35 10 240 12 881 11 l835 -2 56 -26z"/>
<path d="M3584 4212 c-119 -42 -194 -148 -194 -272 0 -294 388 -396 538 -141
24 41 27 56 27 141 0 85 -3 100 -27 141 -70 119 -219 176 -344 131z m153 -149
c46 -22 73 -67 73 -123 0 -56 -27 -101 -73 -123 -62 -30 -115 -18 -167 38 -33
35 -36 130 -5 165 52 59 109 73 172 43z"/>
<path d="M759 1761 c-48 -48 -37 -116 22 -147 79 -40 165 47 125 125 -31 60
-99 70 -147 22z"/>
<path d="M1655 1768 c-39 -35 -44 -86 -11 -125 15 -17 40 -34 56 -38 33 -7 84
15 100 44 48 90 -68 185 -145 119z"/>
<path d="M1024 1497 c-35 -31 -38 -82 -5 -109 21 -16 45 -18 251 -18 202 0
230 2 249 18 33 26 31 79 -3 109 -27 23 -31 23 -246 23 -215 0 -219 0 -246
-23z"/>
</g>
</svg>
